<svg xmlns="http://www.w3.org/2000/svg" width="352" height="60" viewBox="0 0 352 60">
  <g fill="none" fill-rule="evenodd" transform="translate(-60 -270)">
    <rect width="352" height="60" x="60" y="270" fill="#2E3B53" rx="10"/>
    <path fill="#C14125" fill-rule="nonzero" d="M109.35 292.095c.292.073.488.103.587.09a.415.415 0 0 0 .252-.118 4.19 4.19 0 0 1 .233-.217c.09-.078.29-.144.6-.196.233-.027.414.02.544.137.129.118.22.263.27.433.053.171.085.355.098.552.013.196.02.347.02.452.284 0 .458.027.523.08.064.052.097.222.097.51 0 .185-.046.329-.136.434a1.16 1.16 0 0 1-.31.256 1.87 1.87 0 0 0-.31.216c-.091.08-.136.197-.136.355 0 .21.07.367.213.472.142.105.29.197.446.276.155.079.304.164.446.256a.46.46 0 0 1 .213.413c0 .026-.026.066-.078.118-.051.053-.103.079-.155.079-.025 0-.097-.033-.213-.099-.116-.065-.187-.098-.213-.098l-.233 0c0 .131-.013.236-.038.315-.026.079-.117.118-.272.118-.077 0-.18-.059-.31-.177a4.427 4.427 0 0 1-.756-.925c-.09-.158-.136-.276-.136-.355l.039-.078c.026 0 .039-.013.039-.04 0-.026.013-.052.039-.078l.116-.119 0-.078c0-.158-.045-.256-.136-.296a.824.824 0 0 0-.33-.059.336.336 0 0 0-.329.217 1.096 1.096 0 0 0-.097.453c0 .052.039.177.116.374.078.197.162.407.252.63.09.223.188.433.291.63.104.196.181.308.233.334.052.026.2.06.446.099.245.039.381.085.407.137.052.053.09.171.116.355.026.183.039.387.039.61l0 1.004.31 0 .388-.197c.051 0 .103.02.155.06.052.039.077.084.077.137a.739.739 0 0 1-.097.394 1.662 1.662 0 0 1-.232.295c-.09.092-.168.19-.233.295a.739.739 0 0 0-.097.394c0 .341.04.63.117.866.077.236.116.499.116.787 0 .5-.065.945-.194 1.339-.13.394-.207.84-.233 1.339l-.426.196 0-.196c0-.053.026-.164.078-.335.051-.17.09-.282.116-.335-.31.105-.491.092-.543-.04a1.352 1.352 0 0 1-.078-.491c0-.197-.025-.38-.077-.551-.052-.171-.207-.256-.465-.256l-.117 0a1.436 1.436 0 0 1-.232.275l0 1.733c0 .052.013.137.039.255.025.119.051.256.077.414.026.157.052.302.078.433.025.131.038.21.038.236 0 .289-.09.519-.271.69-.18.17-.452.229-.814.176l0 .197c0 .158.032.295.097.414.064.118.142.23.232.334.09.105.168.21.233.315a.739.739 0 0 1 .097.394c0 .525-.297.709-.892.551-.44.289-.73.689-.872 1.2-.138.498-.21.977-.213 1.438a2.415 2.415 0 0 0-.33-.177.832.832 0 0 1-.33-.256 3.35 3.35 0 0 1-.135 1.141c-.116.42-.381.63-.795.63-.258 0-.64-.078-1.144-.236-.504-.157-.885-.315-1.143-.472-.026 0-.084-.04-.175-.118-.09-.08-.18-.171-.271-.276-.09-.105-.175-.203-.252-.295a3.976 3.976 0 0 0-.155-.177.526.526 0 0 0-.388-.08 1.77 1.77 0 0 1-.349.04.338.338 0 0 1-.252-.098c-.065-.066-.097-.217-.097-.453 0-.079.026-.125.078-.138a.75.75 0 0 0 .155-.059l.155-.079c.052-.026.077-.091.077-.196 0-.21-.058-.361-.174-.453a1.85 1.85 0 0 0-.485-.256c0-.053-.026-.164-.077-.335a27.79 27.79 0 0 1-.155-.531 10.717 10.717 0 0 1-.136-.532 4.574 4.574 0 0 0-.097-.374l-.058-.118a3.43 3.43 0 0 0-.155-.275 2.206 2.206 0 0 1-.155-.296.648.648 0 0 1-.058-.177c0-.026.064-.098.193-.216.13-.118.207-.19.233-.217l.039-.079c0-.078-.071-.144-.213-.196a6.002 6.002 0 0 0-.504-.158 5.058 5.058 0 0 1-.582-.197 3.405 3.405 0 0 1-.485-.236l-.077-.04-.116.04a.187.187 0 0 0-.097.04 1.263 1.263 0 0 1-.136.078 1.89 1.89 0 0 1-.194.118c-.026 0-.065-.026-.116-.079a.616.616 0 0 1-.117-.157 12.98 12.98 0 0 1-.6-1.22 4.991 4.991 0 0 1-.252-.788 2.94 2.94 0 0 1-.059-.768c.013-.275.02-.689.02-1.24-.388 0-.646-.046-.776-.138a.699.699 0 0 1-.252-.275 1.102 1.102 0 0 1-.077-.276c-.013-.092-.097-.138-.252-.138l-.155 0a5.447 5.447 0 0 0-.194 1.063 14.08 14.08 0 0 0-.039 1.063c-.103 0-.155.04-.155.119-.414.393-.782.662-1.105.807a9.88 9.88 0 0 1-1.337.452c0 .053-.033.099-.097.138-.065.04-.097.072-.097.099 0 .052.019.15.058.295.039.144.09.308.155.492.065.184.116.354.155.512.039.157.058.275.058.354 0 .105-.045.23-.136.374a14.751 14.751 0 0 1-.678.984 1.68 1.68 0 0 0-.271.493 8.622 8.622 0 0 1-.136.63c-.065.262-.136.53-.213.807a6.002 6.002 0 0 1-.291.807c-.116.262-.24.472-.368.63a.208.208 0 0 1-.194.059 1.392 1.392 0 0 0-.233-.02.562.562 0 0 0-.213.04c-.065.026-.097.104-.097.236 0 .157.045.249.136.275a1.5 1.5 0 0 1 .31.138c.116.066.232.184.349.354.116.17.213.48.29.925l0 .04c0 .289-.11.551-.33.787-.219.236-.47.355-.755.355l0-.985-.271 0 0 1.142-.117 0c-.103 0-.168-.013-.194-.04a1.006 1.006 0 0 1-.581-.373 2.967 2.967 0 0 1-.388-.65 3.67 3.67 0 0 1-.233-.728 3.262 3.262 0 0 1-.077-.65l-.504 0c0 .289-.052.584-.155.886-.104.302-.375.453-.814.453l-.078-.04c-.026 0-.084-.046-.174-.138a6.13 6.13 0 0 1-.272-.295 6.037 6.037 0 0 0-.271-.295l-.175-.177a.855.855 0 0 1-.213-.079.878.878 0 0 1-.213-.118l0-.197.233-.236a1.075 1.075 0 0 1-.466-.433 7.833 7.833 0 0 1-.29-.571 4.86 4.86 0 0 0-.31-.571 1.205 1.205 0 0 0-.485-.433.45.45 0 0 1-.117-.079c-.051-.052-.077-.092-.077-.118.284-.079.433-.236.446-.472.013-.237.02-.46.02-.67 0-.105-.007-.242-.02-.413a3.005 3.005 0 0 0-.078-.492 1.105 1.105 0 0 0-.194-.414.44.44 0 0 0-.368-.177l-.271 0c0-.052.02-.144.058-.275.039-.132.11-.197.213-.197.078 0 .175.046.29.138.117.092.233.19.35.295.116.105.213.203.29.295.078.092.13.151.156.177l0-.433a7.652 7.652 0 0 0-.136-.256c-.065-.118-.097-.19-.097-.216 0-.053.026-.158.078-.315.051-.158.103-.263.155-.315a.523.523 0 0 1-.117-.02.523.523 0 0 0-.116-.02.17.17 0 0 0-.078.02.17.17 0 0 1-.077.02l-.078 0c-.025 0-.097.04-.213.118-.116.079-.187.118-.213.118-.052 0-.116-.098-.194-.295a5.447 5.447 0 0 1-.213-.69 17.186 17.186 0 0 1-.175-.786 3.365 3.365 0 0 1-.077-.591l-.039-.138a5.571 5.571 0 0 1-.077-.315 3.665 3.665 0 0 1-.078-.531c0-.027.013-.112.039-.256.026-.145.051-.295.077-.453a5.89 5.89 0 0 0 .078-.787l.077 0c.285 0 .569.052.853.157.285.105.556.21.815.315l.232 0a13.546 13.546 0 0 0 .427-.709c-.155.027-.336.053-.543.08-.207.025-.4.019-.582-.02a.953.953 0 0 1-.446-.217c-.116-.105-.174-.263-.174-.472 0-.29.039-.532.116-.729.078-.197.117-.44.117-.728 0-.236-.059-.407-.175-.512a1.125 1.125 0 0 0-.485-.236c.052-.053.136-.164.252-.335.117-.17.175-.282.175-.335l0-.118a.67.67 0 0 0-.116-.374.736.736 0 0 1-.117-.413c0-.262.058-.545.175-.846.116-.302.245-.598.387-.886.143-.289.272-.584.388-.886.116-.302.175-.597.175-.886 0-.131-.026-.216-.078-.256l-.155-.118a1.463 1.463 0 0 1-.155-.138c-.052-.052-.078-.157-.078-.315 0-.262.04-.505.117-.728.077-.223.258-.361.543-.413-.052-.473-.033-.893.058-1.26.09-.368.194-.722.31-1.063.116-.341.226-.683.33-1.024a4.08 4.08 0 0 0 .154-1.181l0-.079c0-.052-.032-.131-.096-.236-.065-.105-.097-.17-.097-.197 0-.157.09-.348.271-.57.18-.224.336-.335.465-.335.207 0 .369.098.485.295.116.197.174.374.174.531-.362 0-.614.178-.756.532a2.7 2.7 0 0 0-.213 1.004c0 .105.02.223.058.354.039.131.175.17.407.118a.462.462 0 0 0 .31-.236 2.192 2.192 0 0 0 .291-.905 4.8 4.8 0 0 0 .02-.355c.258.158.49.446.697.866.207.42.369.873.485 1.359.116.485.207.964.272 1.437a9 9 0 0 1 .096 1.18c0 .106-.006.322-.019.65-.013.328-.02.545-.02.65a.589.589 0 0 0-.232.079c-.103.052-.168.105-.194.157l0 .04c0 .21.045.433.136.669.09.236.187.433.29.59l0 2.874a33.756 33.756 0 0 0 .078 2.028c.026.38.065.735.117 1.063.051.328.142.545.27.65l.427 3.937.194 0a6.31 6.31 0 0 1 .407-.886l.427-.748c.142-.25.265-.499.368-.748.103-.25.194-.545.271-.886l.892 0 0-1.536c.362-.315.614-.774.756-1.378a23.04 23.04 0 0 0 .369-1.988c.103-.721.22-1.456.348-2.204.13-.748.362-1.398.698-1.95.13-.21.207-.406.233-.59.026-.184.207-.275.543-.275l.116 0c0 .078.071.256.213.531.142.276.278.466.407.571-.051.157-.11.236-.174.236l-.213 0c-.078 0-.175.053-.291.158-.116.105-.252.34-.407.708l.039.118c.051 0 .09.02.116.06.026.039.052.059.077.059a.52.52 0 0 0 .117-.256c.026-.118.064-.19.116-.217l.078-.04.077.04.039 0 .426.906a.47.47 0 0 0 .31-.296 1.79 1.79 0 0 0 .097-.492 6.68 6.68 0 0 1 .059-.531.948.948 0 0 1 .193-.453l.408.276c.193.13.394.269.6.413.207.144.401.276.582.394.18.118.297.203.349.256.052.026.097.164.136.413.038.25.07.4.097.453 0 .026.058.124.174.295.116.17.2.295.252.374.103.157.258.479.465.965.207.485.407 1.017.601 1.594.194.577.362 1.122.504 1.634.142.512.213.873.213 1.083a.887.887 0 0 1-.252.65.84.84 0 0 0-.252.61c0 .262.065.42.194.472.13.052.298.079.504.079l0 .118c-.026.052-.103.138-.232.256-.13.118-.207.203-.233.256l0 .157c.052.131.13.197.233.197.103.079.316.203.64.374.322.17.536.295.64.374 0 .131.057.407.174.827a22.7 22.7 0 0 0 .93 2.638c.168.393.317.616.446.669.052.026.2 0 .446-.079.245-.079.42-.118.523-.118 0-.945.142-1.824.427-2.638.284-.814.517-1.693.697-2.638.052-.157.175-.38.369-.669.194-.289.29-.472.29-.551l0-.079c0-.052-.025-.17-.077-.354a1.797 1.797 0 0 1-.078-.355c0-.026-.006-.045-.019-.059-.013-.013-.02-.032-.02-.059-.025-.026-.038-.052-.038-.078l.426 0c0-.237-.07-.453-.213-.65a1.146 1.146 0 0 1-.213-.689c0-.289.116-.433.349-.433l.155 0c.026.026.097.092.213.197.117.105.175.184.175.236 0 .026-.026.066-.078.118-.052.053-.077.092-.077.118l0 .079c0 .105.019.25.058.433l.116.551c.039.184.078.361.116.532.04.17.059.308.059.413.387-.131.646-.262.775-.394.13-.13.194-.34.194-.63 0-.393-.13-.767-.388-1.122a1.987 1.987 0 0 1-.388-1.2l.466 0c0-.368-.065-.624-.194-.768a1.204 1.204 0 0 0-.427-.315 3.26 3.26 0 0 1-.426-.217c-.13-.078-.194-.236-.194-.472l.388 0c.051.026.129.072.232.138.104.065.168.098.194.098.026 0 .084-.065.175-.197a23.202 23.202 0 0 0 .581-.885l.136-.217c0-.079-.026-.197-.078-.354-.051-.158-.103-.263-.155-.315-.026.052-.09.13-.194.236-.103.105-.18.17-.232.197l-.233 0a2.825 2.825 0 0 0-.31-.118c-.155-.053-.246-.092-.271-.118.284-.263.536-.512.756-.748.22-.237.33-.578.33-1.024 0-.21-.053-.361-.156-.453a3.176 3.176 0 0 0-.33-.256 9.146 9.146 0 0 0-.368-.236.486.486 0 0 1-.232-.354c-.026 0-.04-.105-.04-.315 0-.105.014-.21.04-.315a.506.506 0 0 0-.252-.118.506.506 0 0 1-.252-.118l0-.237a.53.53 0 0 0 .174-.197c.065-.105.097-.183.097-.236l0-.04c0-.025.006-.038.02-.038.012 0 .019-.014.019-.04 0-.079-.039-.15-.117-.216a2.466 2.466 0 0 0-.271-.197 1.008 1.008 0 0 1-.271-.256.645.645 0 0 1-.117-.394c0-.079.013-.184.04-.315.025-.131.038-.223.038-.275.026-.053.07-.23.136-.532.064-.302.096-.492.096-.57-.051-.053-.135-.23-.252-.532-.116-.302-.2-.48-.252-.532l0-.433c.052-.105.097-.302.136-.59.039-.29.084-.46.136-.512.026 0 .045-.013.058-.04.013-.026.032-.039.058-.039.181 0 .304.092.368.276.065.183.175.275.33.275.207 0 .368-.04.485-.118a.646.646 0 0 1 .368-.118c.284 0 .55.033.795.098.245.066.497.099.756.099l0-.197c0-.079-.026-.203-.078-.374a1.522 1.522 0 0 0-.155-.374l.35 0c.154 0 .283.013.387.04.103.026.22.104.349.236.207.42.426.892.659 1.417.232.525.446 1.063.64 1.614.193.551.355 1.096.484 1.634.13.538.194 1.03.194 1.476l0 .237-1.086-.237c.078-.183.072-.34-.019-.472-.09-.131-.226-.197-.407-.197-.233 0-.452.072-.66.217a1.131 1.131 0 0 1-.658.216c-.181 0-.343-.177-.485-.531a4.707 4.707 0 0 0-.368-.768l-.155-.158a5.651 5.651 0 0 0-.272-.255c-.103-.092-.2-.178-.29-.256a3.954 3.954 0 0 1-.175-.158l-.077 0-.04.04c0 .157.033.301.098.433.064.13.097.288.097.472a.177.177 0 0 1-.02.079.278.278 0 0 0-.02.118.305.305 0 0 0-.038.118c0 .052-.039.098-.116.138-.078.04-.116.072-.116.098 0 .158.012.361.038.61.026.25.078.493.155.729.078.236.194.44.35.61.154.17.348.256.58.256.13 0 .195-.079.195-.236a.949.949 0 0 0-.058-.256c-.031-.093-.066-.15-.104-.17l.001.001zm-3.767 20.504l0-.198-.166 0 .166.198zM90.5 306.318c-.11 0-.166.06-.166.182 0 .122.056.182.166.182.11 0 .166-.06.166-.182 0-.122-.056-.182-.166-.182zm-1.983.086c-.067-.022-.1.006-.1.083 0 .077.033.116.1.116.044-.044.066-.088.066-.132 0-.045-.022-.067-.066-.067zm-2.1-2.793c.023-.03.045-.06.066-.09l.1-.132-.166 0 0 .222zm.021.47c-.288-.014-.501-.118-.638-.31-.148-.209-.34-.465-.578-.771L85 303l0 .5c0 .222.015.451.044.688.03.236.052.458.067.666.015.209.052.354.111.438.03.055.119.104.267.146.148.041.237.09.267.145l0 .084c0 .027.014.055.044.083 0 .306-.193.458-.578.458.148.223.37.41.667.563.296.153.563.229.8.229 0-.306.052-.57.155-.792.104-.222.156-.486.156-.791l-.178-.042a5.411 5.411 0 0 1-.378-.104 5.411 5.411 0 0 0-.377-.104c-.119-.028-.178-.056-.178-.084 0-.083.044-.208.133-.375.09-.166.185-.32.29-.458.043-.059.085-.115.126-.168zm17.062 2.22c-.11 0-.166.066-.166.199 0 .133.056.199.166.199.11 0 .166-.066.166-.199 0-.133-.056-.199-.166-.199zm5.917.298l.166 0-.166-.198 0 .198zm-20.834-3.033l0-.132-.166 0 .166.132zm21.436-1.281c0 .044.028.138.083.281.055.144.094.249.116.315l.1 0c.11 0 .232-.038.364-.116a.818.818 0 0 0 .299-.282 3.72 3.72 0 0 0-.415-.132c-.165-.044-.281-.122-.348-.232-.022 0-.06.016-.116.05-.055.033-.083.071-.083.116zm-16.701.331c.199 0 .32-.077.364-.232l-.364 0 0 .232zm5.1-.017l.165-.198-.166 0 0 .198zm-4.382-1.007l.928 0c-.022-.133-.1-.194-.232-.183a4.118 4.118 0 0 1-.331.017l-.365 0 0 .166zm-4.619-.993l.166 0 0-.198-.166 0 0 .198zm5.602-.016c.045.044.11.116.2.215.088.1.143.16.165.183.133-.089.265-.243.398-.464.132-.221.199-.387.199-.498-.133 0-.326.033-.58.1-.255.066-.382.199-.382.398l0 .066zm16.498-.282c-.11 0-.166.066-.166.199 0 .133.055.199.166.199.088 0 .132-.066.132-.199 0-.133-.044-.199-.132-.199zm-25.034.017c-.088 0-.132.06-.132.182 0 .122.044.182.132.182.11 0 .166-.06.166-.182 0-.122-.055-.182-.166-.182zm23.735-.803c.044.04.138.121.282.243.144.12.238.202.282.242l0-.152c0-.08-.022-.232-.067-.454-.044-.222-.088-.354-.132-.394l-.365.333 0 .182zm-13.9-.114c.088.132.21.198.364.198l0-.198-.364 0zm2.1.182l.165 0 0-.166-.166 0 0 .166zm-1.935-1.166c-.044-.022-.066.006-.066.083 0 .077.022.105.066.083.067 0 .1-.028.1-.083 0-.055-.033-.083-.1-.083zm15-.083c-.088 0-.132.056-.132.166 0 .11.044.166.132.166.11 0 .166-.056.166-.166 0-.11-.055-.166-.166-.166zm-1.884.2c0-.09-.033-.133-.099-.133-.066 0-.1.044-.1.132.045.044.089.066.133.066.044 0 .066-.022.066-.066zM95.564 298c.103-.139.205-.326.308-.563.102-.236.188-.437.256-.604.069-.25.154-.41.257-.479a1.15 1.15 0 0 1 .282-.146 2.32 2.32 0 0 1 .23-.062c.069-.014.103-.09.103-.23l0-.25c-.308 0-.632-.055-.974-.166-.342-.111-.599-.278-.77-.5l-.256.208 0 2.334.564.458zm-10.064-.682c-.11 0-.166.06-.166.182 0 .122.056.182.166.182.11 0 .166-.06.166-.182 0-.122-.056-.182-.166-.182zm10.718.066c.044.11.122.177.232.199.11.022.221.033.332.033l0-.232-.564 0zm-9.735-2.066c-.088 0-.132.06-.132.182 0 .122.044.182.132.182.11 0 .166-.06.166-.182 0-.122-.055-.182-.166-.182zm23.2-1.017a.607.607 0 0 0-.282.133.332.332 0 0 0-.116.265.66.66 0 0 0 .298-.066c.088-.045.132-.122.132-.232l-.033-.1zm-15.166 0c.088 0 .132.066.132.199 0 .133-.044.199-.132.199-.11 0-.166-.066-.166-.199 0-.133.055-.199.166-.199zm16.685-1.1c0 .111.01.238.033.382.022.144.121.215.298.215l.066 0 .2-.199 0-.066c0-.177-.072-.276-.216-.298a2.541 2.541 0 0 0-.381-.033zM85.4 293.6l.198-.198-.198 0 0 .198zm24.033-5l.132 0 0-.198-.132 0 0 .198zm.05-.917l.198-.232-.199-.132-.165.132.165.232zm-.901-.016l.232-.133c-.066-.11-.133-.171-.199-.182a1.428 1.428 0 0 0-.232-.017l-.199 0 .398.332zm25.9 25.359a2.64 2.64 0 0 1-.762-.04 5.119 5.119 0 0 1-.918-.253 5.254 5.254 0 0 1-.86-.41c-.26-.155-.443-.324-.547-.506l0-.195c-.078-.39-.202-.696-.371-.917a3.028 3.028 0 0 0-.528-.546 28.683 28.683 0 0 0-.508-.39 1.085 1.085 0 0 1-.351-.448.367.367 0 0 1-.02-.215c.013-.09.02-.182.02-.273 0-.09-.026-.156-.078-.195-.053-.039-.157-.045-.313-.02-.026.027-.059.105-.098.235-.039.13-.071.22-.097.273a1.39 1.39 0 0 1-.313.487 4.773 4.773 0 0 1-.528.488 4.504 4.504 0 0 0-.508.468.737.737 0 0 0-.215.507l0 .195c.053-.026.15-.065.294-.117.143-.052.24-.078.293-.078.026 0 .058.026.097.078.04.052.072.09.098.117l0 .039c0 .026.013.052.04.078 0 .13-.027.201-.08.214a.728.728 0 0 1-.175.02.286.286 0 0 0-.176.058c-.052.04-.078.137-.078.293-.026 0-.085.078-.176.234-.091.156-.15.234-.176.234 0-.052-.09-.065-.273-.04-.183.027-.287.027-.313 0-.13-.207-.228-.298-.293-.272-.065.026-.202.039-.41.039a.841.841 0 0 1-.47.331 18.71 18.71 0 0 0-.644.215 2.55 2.55 0 0 0-.566.273.49.49 0 0 0-.235.429l-2.188 0c-.026.13-.085.195-.176.195l-.293 0c-.651 0-1.257-.13-1.817-.39-.56-.26-.84-.728-.84-1.404 0-.234.006-.442.02-.624.012-.182.084-.39.214-.624-.052-.052-.15-.098-.293-.137a1.377 1.377 0 0 0-.293-.058c-.052 0-.15.02-.293.058-.143.04-.241.085-.293.137a.512.512 0 0 1 .117.253c.026.117.04.202.04.254a.82.82 0 0 0 .019.136.82.82 0 0 1 .02.137c-.313 0-.541-.091-.685-.273a1.74 1.74 0 0 1-.312-.663 3.278 3.278 0 0 1-.098-.8c0-.273-.026-.5-.078-.682a.683.683 0 0 0-.078-.195 3.112 3.112 0 0 0-.196-.332c-.078-.117-.15-.227-.214-.331-.066-.104-.098-.17-.098-.195a4.107 4.107 0 0 1-.098-.39 16.99 16.99 0 0 1-.117-.605 16.99 16.99 0 0 0-.117-.605 2.146 2.146 0 0 1-.059-.39c.052-.026.124-.078.215-.156a.725.725 0 0 0 .176-.195l0-.039c0-.182-.033-.338-.098-.468a.864.864 0 0 1-.098-.39c0-.13.04-.28.118-.448.078-.17.195-.254.351-.254l.118 0a.33.33 0 0 1 .136.156.46.46 0 0 1 .059.195l.352-.156a.592.592 0 0 0-.352-.312 8.492 8.492 0 0 0-.45-.136 1.75 1.75 0 0 1-.39-.156c-.117-.065-.176-.176-.176-.332 0-.104.04-.175.117-.214a.843.843 0 0 1 .274-.078.843.843 0 0 0 .273-.078c.078-.04.118-.137.118-.293l1.21 0 0-.35-.976-.39 0-.235c0-.494.085-.845.254-1.053a1.32 1.32 0 0 1 .586-.429c.222-.078.436-.13.645-.156.208-.026.352-.117.43-.273a.637.637 0 0 1-.176-.059c-.091-.039-.15-.084-.176-.136l-.039-.078c0-.234.072-.397.215-.488.143-.09.312-.156.508-.195l.586-.117c.195-.039.345-.097.45-.175.025 0 .038-.091.038-.273a.735.735 0 0 0-.039-.234c.053-.052.163-.15.333-.293.169-.143.267-.24.293-.292l0-.312-.391-.546 0-.195a.725.725 0 0 1 .176-.195c.09-.078.163-.13.215-.156l.078-.04.078.04a.612.612 0 0 1 .156.117c.052.052.078.09.078.117l1.524 0c0 .052.026.117.079.195.052.078.104.117.156.117.365.026.638-.04.82-.195.183-.156.352-.332.508-.527.157-.195.346-.37.567-.526.221-.156.54-.221.957-.195.079 0 .26.097.547.292.287.195.6.416.938.663.339.247.665.488.977.722.313.234.534.39.665.468.13.078.247.201.351.37.104.17.196.364.274.585.078.221.136.43.176.624.039.195.045.345.02.449a.57.57 0 0 1 .37.214c.092.117.176.24.254.37.078.13.157.241.235.332.078.091.195.137.351.137-.026.078-.013.195.04.351.052.156.11.325.175.507.066.182.13.351.196.507.065.156.097.273.097.351l0 .234.079.078c.026.026.065.04.117.04l0 .116a.3.3 0 0 0 .039.117c-.26 0-.495-.052-.703-.156a1.468 1.468 0 0 0-.665-.156c0 .026.033.182.098.468.065.286.15.43.254.43l1.524 0c.052 0 .065.051.039.155a1.749 1.749 0 0 1-.137.351c-.065.13-.124.254-.176.37-.052.118-.065.202-.039.254l.391 1.287c.052.208.17.3.352.273.182-.026.286.078.312.312 0 .052-.058.156-.175.312-.118.156-.163.273-.137.351.026.13.09.234.195.312.104.078.209.15.313.215.104.065.202.143.293.234.091.091.124.189.098.293l-.118.819c0 .052.052.117.157.195.104.078.228.15.37.214.144.065.28.137.411.215.13.078.209.143.235.195 0 .026.006.045.02.058.012.013.019.046.019.098.052.156.104.364.156.624.052.26.104.416.156.468.026.052.17.13.43.234l.88.35c.325.13.644.274.957.43.312.156.534.299.664.429-.234.052-.371.136-.41.253a.71.71 0 0 0-.02.37c.026.13.052.267.078.41a.443.443 0 0 1-.117.39c-.104.117-.319.215-.645.293-.325.078-.814.117-1.465.117-.156 0-.274-.039-.352-.117a1.2 1.2 0 0 1-.195-.254 3.48 3.48 0 0 1-.156-.312.732.732 0 0 0-.235-.292zm-12.908-3.525c.044-.044.022-.066-.066-.066-.089 0-.122.022-.1.066.022.044.056.066.1.066.044 0 .066-.022.066-.066zm-.075-.15c-.088 0-.133.05-.133.15 0 .1.045.15.133.15.088 0 .133-.05.133-.15 0-.1-.045-.15-.133-.15zm3.983 0c-.088 0-.132.05-.132.15 0 .1.044.15.132.15.11 0 .166-.05.166-.15 0-.1-.055-.15-.166-.15zm-2.182-.618c.044-.044.122-.105.232-.182.11-.078.166-.172.166-.282l-.398 0 0 .464zm-3.551-2.31c.132.124.257.344.375.657.118.313.257.507.414.583.264.075.474.137.632.188.158.05.303.081.434.094l.395.037c.132.013.303.019.513.019.263 0 .448-.019.553-.056a.96.96 0 0 0 .276-.15c.08-.063.165-.132.257-.208.092-.075.256-.162.493-.263.053-.025.217-.056.494-.094.276-.037.44-.069.493-.094.316-.125.592-.4.829-.827.237-.426.42-.777.553-1.052.052-.126.17-.207.355-.245.184-.037.329-.081.434-.131l0-.15a1.685 1.685 0 0 0-.237-.151c-.131-.075-.197-.138-.197-.188 0-.05.066-.144.197-.282.132-.138.21-.207.237-.207.21-.651.388-1.41.533-2.274.145-.865.217-1.61.217-2.237 0-.326-.079-.583-.237-.77a1.367 1.367 0 0 0-.631-.414 3.62 3.62 0 0 0-.85-.17 11.237 11.237 0 0 0-.927-.037c-.079 0-.27.075-.572.226-.303.15-.619.32-.947.507-.33.188-.625.363-.889.526a5.633 5.633 0 0 0-.434.282c0 .05-.026.17-.079.357a2.37 2.37 0 0 1-.118.358c-.08.025-.145.05-.198.075-.026.025-.065.037-.118.037-.026 0-.053.013-.079.038l-.75.677c-.026 0-.04.012-.04.037l0 .075c0 .126.04.207.119.245.079.037.118.156.118.357 0 .175-.006.32-.02.432a1.538 1.538 0 0 1-.078.339l-.336.958c-.105.326-.263.57-.473.733a2.248 2.248 0 0 1-.652.358 6.767 6.767 0 0 1-.572.169c-.158.037-.237.106-.237.206 0 .226.066.376.197.452a1.3 1.3 0 0 0 .474.15c.184.025.362.05.533.075.171.025.283.113.335.263-.078.1-.197.2-.355.301-.158.1-.302.163-.434.188zm5.667 2.144l.166 0 0-.132-.166 0 0 .132zm2.934-.9l.298 0 0-.332-.298 0 0 .332zm-2.2-1.1c0 .11.05.177.15.2.1.021.193.032.282.032l.265 0-.166-.596c-.088.022-.199.06-.331.116-.133.055-.2.138-.2.248zm-3.734-7.983l.166 0 0-.166-.166 0 0 .166zm4.066-3.232c-.066 0-.099.05-.099.149 0 .1.033.15.1.15.088 0 .132-.05.132-.15 0-.1-.044-.15-.133-.15zm-.904-.851c.022-.044 0-.066-.067-.066-.066 0-.099.022-.099.066.044.044.083.066.116.066.033 0 .05-.022.05-.066zM164 312.84a20.76 20.76 0 0 0-.478.174c-.243.09-.402.161-.479.213-.128.051-.21.174-.249.367-.038.193-.121.29-.249.29 0-.541-.07-.877-.21-1.006a.696.696 0 0 0-.536-.174 4.644 4.644 0 0 0-.689.097.895.895 0 0 1-.708-.155c-.153-.103-.236-.212-.249-.328a3.014 3.014 0 0 1-.019-.329.488.488 0 0 0-.057-.251c-.039-.065-.173-.097-.402-.097-.23 0-.39.11-.479.329-.09.219-.287.328-.593.328 0-.206.076-.374.23-.502a.626.626 0 0 0 .23-.503c0-.155-.045-.252-.135-.29a.817.817 0 0 0-.325-.058 3.51 3.51 0 0 0-.383.02.455.455 0 0 1-.306-.059c-.051-.026-.147-.122-.287-.29-.14-.168-.236-.251-.287-.251l-.077 0c-.025 0-.044-.007-.057-.02-.013-.013-.032-.019-.058-.019-.204 0-.357.07-.459.213a.49.49 0 0 1-.421.212c-.026 0-.083-.077-.172-.232-.09-.154-.185-.328-.287-.522a7.37 7.37 0 0 1-.268-.56c-.077-.181-.115-.297-.115-.349l0-.116c.025 0 .07-.051.134-.154.064-.103.083-.168.057-.194-.025-.051-.121-.154-.287-.31-.166-.154-.249-.244-.249-.27-.05-.051-.095-.148-.134-.29a6.64 6.64 0 0 0-.095-.329l-.536-4.602a3.308 3.308 0 0 0-.172-.464 4.545 4.545 0 0 0-.25-.503 1.98 1.98 0 0 0-.363.078 2.48 2.48 0 0 0-.364.116c-.05.051-.089.16-.114.328-.026.168-.064.252-.115.252-.026.051-.096.039-.21-.039-.116-.077-.198-.116-.25-.116 0 .052.026.18.077.387.051.206.064.335.038.387l-.095.096c-.039.039-.07.058-.096.058l-1.531 0a2.47 2.47 0 0 1-.287.329l-.287.29c-.026 0-.077-.026-.153-.077a.37.37 0 0 0-.192-.078c0 .232-.013.387-.038.464-.026.078.038.22.191.426-.23.051-.395.116-.497.193a.908.908 0 0 0-.25.29 2.7 2.7 0 0 0-.171.387 3.221 3.221 0 0 1-.23.483.952.952 0 0 0-.172-.116.517.517 0 0 0-.173-.077c-.025-.026-.031-.026-.019 0 .013.026-.006.039-.057.039 0 .283.032.445.096.483a.43.43 0 0 0 .23.058.31.31 0 0 1 .229.097c.064.064.096.264.096.6-.256 0-.447.05-.575.154a1.297 1.297 0 0 0-.325.406c-.09.168-.179.348-.268.542a1.55 1.55 0 0 1-.402.522.438.438 0 0 1-.325.116l-.402 0c-.128 0-.249.006-.364.019-.115.013-.185.084-.21.213-.051.206-.083.528-.096.967-.013.438-.108.76-.287.966-.383 0-.676.046-.88.136-.205.09-.377.213-.517.367-.14.155-.274.342-.402.561-.128.22-.293.445-.498.677a.917.917 0 0 1-.191-.426 3.498 3.498 0 0 0-.096-.425.495.495 0 0 0-.21-.29c-.102-.065-.306-.071-.613-.02a1.293 1.293 0 0 0-.23.175.847.847 0 0 0-.19.212l.095.097a.53.53 0 0 0 .134.097l.191 0c0-.026.051-.065.153-.116a.667.667 0 0 1 .192-.078c.025 0 .064.026.115.078.05.051.076.09.076.116l0 .038c0 .026.013.052.038.078l-.038.077c-.025.026-.09.084-.191.174a.847.847 0 0 0-.192.213c-.05.077-.114.264-.191.56-.077.297-.128.497-.153.6-.204-.103-.408-.425-.613-.967a15.785 15.785 0 0 1-.555-1.837c-.165-.683-.3-1.334-.401-1.953-.103-.619-.154-1.057-.154-1.315l0-.27a.619.619 0 0 0 .173.096c.089.039.16.071.21.097l.153 0a.844.844 0 0 0 .21-.194c.09-.103.16-.18.211-.232l0-.077a3.888 3.888 0 0 1-.574-.31c-.357-.18-.561-.296-.612-.347a9.135 9.135 0 0 1-.134-1.025 17.96 17.96 0 0 1-.02-.91c0-.36.033-.708.096-1.043a5.56 5.56 0 0 0 .096-1.044c0-.413-.032-.813-.096-1.2a7.606 7.606 0 0 1-.095-1.237l0-.077c0-.026.05-.09.153-.194.102-.103.178-.167.23-.193l0-.077-.096-.213a8.547 8.547 0 0 1-.421-1.18 2.484 2.484 0 0 1-.096-.657.79.79 0 0 1 .115-.445.72.72 0 0 0 .115-.406l0-.077c0-.052-.032-.155-.096-.31a1.38 1.38 0 0 1-.096-.27c0-.104.045-.162.134-.174.09-.013.192-.026.306-.04a.794.794 0 0 0 .364-.154c.128-.09.23-.29.306-.6.051-.05.051-.167 0-.347a1.757 1.757 0 0 1-.076-.348c-.128 0-.275-.02-.44-.058-.166-.04-.25.045-.25.251l0 .077.422.426 0 .193a1.79 1.79 0 0 1-.287.097c-.14.038-.236.058-.287.058l0-1.392c.306 0 .53-.116.67-.349.14-.232.21-.49.21-.773.077 0 .21.039.402.116a5.344 5.344 0 0 1 1.206.715c.178.142.293.265.344.368-.153.051-.3.155-.44.31-.14.154-.274.231-.402.231l-.115 0a.517.517 0 0 1-.172-.077.517.517 0 0 0-.172-.077l0 .386c.025 0 .121.007.287.02.166.013.344.038.536.077.191.039.357.097.497.174.14.077.21.168.21.27 0 .31-.101.574-.305.794a1.117 1.117 0 0 0-.307.792c0 .155.064.271.192.349.127.077.261.154.402.232.14.077.274.174.402.29.127.116.191.277.191.483 0 .052-.006.148-.02.29a5.144 5.144 0 0 0-.018.251c0 .052-.032.155-.096.31a1.38 1.38 0 0 0-.096.27c0 .284.109.465.326.542.217.077.414.116.593.116 0 .284.026.664.077 1.14.05.478.102.78.153.91.025.026.089.148.191.367.102.22.166.355.191.406l0 .194a1.962 1.962 0 0 1-.267.174c-.154.09-.256.148-.307.174l0 .193c.179.593.32.967.421 1.122.102.154.204.238.307.251.102.013.21.026.325.039.115.013.274.187.478.522l.192-.194c-.077-.773-.064-1.308.038-1.605.102-.296.249-.496.44-.599.192-.103.415-.206.67-.31.255-.103.498-.347.727-.734.256-.49.46-.903.613-1.238.153-.335.46-.696.918-1.083.026.103.064.245.115.426.051.18.14.296.268.348.026-.052.083-.13.173-.232.089-.103.159-.155.21-.155.026-.026.09 0 .191.077.102.078.166.116.192.116.05 0 .172-.012.363-.038a3.78 3.78 0 0 1 .364-.039c0-.051-.032-.167-.096-.348-.063-.18-.083-.296-.057-.348 0-.026.057-.065.172-.116a.847.847 0 0 1 .21-.077c.026-.026.065-.058.116-.097.05-.039.076-.071.076-.097 0-.026-.019-.11-.057-.251a42.469 42.469 0 0 0-.134-.484c-.051-.18-.096-.354-.134-.522a1.864 1.864 0 0 1-.058-.367c0-.129.07-.322.21-.58.141-.258.262-.413.365-.464.127.025.197.09.21.193.013.103.006.22-.02.348a1.207 1.207 0 0 0-.018.368c.013.116.083.186.21.212a.963.963 0 0 0 .115-.174.48.48 0 0 0 .077-.212c0-.13.025-.387.076-.774.051-.387.077-.632.077-.735 0-.051.025-.096.076-.135a.253.253 0 0 1 .153-.058c.026 0 .083.02.173.058.089.039.16.084.21.135l0 .078c0 .154-.025.257-.076.309-.051.052-.077.206-.077.464.026 0 .051.02.077.058.025.039.05.058.076.058.026-.051.083-.155.172-.31a6.5 6.5 0 0 0 .173-.309l.115 0c.153 0 .312.045.478.136.166.09.338.187.517.29.178.103.357.212.536.328.178.116.331.187.459.213.051.026.153.026.306 0 .153-.026.243-.026.268 0 .026.052.058.187.096.406.038.22.07.342.096.368.076.18.19.328.344.444l.46.348c.152.116.286.252.401.407.115.154.173.36.173.618a.72.72 0 0 1-.115.406.656.656 0 0 0-.115.368c0 .154.064.258.191.31.128.05.192.167.192.347l0 .232c0 .052-.026.213-.077.484-.05.27-.09.432-.115.483l0 .077c0 .155.026.271.077.349a.496.496 0 0 0 .191.174c.077.038.16.077.249.116a.63.63 0 0 1 .249.212c.025.052.025.155 0 .31-.026.154-.026.258 0 .31.025 0 .09.076.191.231.102.155.153.258.153.31.026.077.064.206.115.386.051.18.096.374.134.58.038.207.077.4.115.58.038.181.057.31.057.387l.345.503.42 1.934.958.89.919.695.765.542.69.967.267.232 0 .58zm-3-1.009l.265 0c.117-.022.27-.05.456-.082.186-.034.279-.061.279-.083l0-.166-.353-.133a2.633 2.633 0 0 0-.309-.116 4.59 4.59 0 0 1-.25-.082l.06.132c0 .022.004.039.014.05.01.01.014.027.014.05l0 .033c-.039 0-.068-.011-.088-.033a.343.343 0 0 0-.088-.067l0 .497zm-17.566-1.248l.132 0 0-.166-.132 0 0 .166zm16.867-.269c0 .266.133.398.398.398 0-.177-.022-.298-.066-.364-.045-.067-.155-.078-.332-.034zm.216-.963c-.11 0-.166.05-.166.149 0 .1.055.15.166.15.088 0 .132-.05.132-.15 0-.1-.044-.15-.132-.15zm-1.282-1.685l.166.165a.866.866 0 0 1 .182-.132.443.443 0 0 0 .182-.232l0-.166c-.022 0-.05-.022-.083-.066-.033-.044-.072-.066-.116-.066-.044 0-.105.044-.182.132a4.623 4.623 0 0 1-.15.166l0 .199zm1.232.685c-.066 0-.1.05-.1.149 0 .1.034.15.1.15.11 0 .166-.05.166-.15 0-.1-.056-.15-.166-.15zm-1.134-2.375c.02.065.086.22.197.463.111.244.217.43.318.561l.152-.293a1.937 1.937 0 0 0-.273-.731 3.284 3.284 0 0 0-.454-.586l-.121-.195a.846.846 0 0 1-.091-.195c-.02.163-.03.309-.03.439a1.7 1.7 0 0 0-.031.341l0 .147.333.049zm-16.9 1.59l.133 0 0-.132-.132.132zM143 306c0 .296.114.674.341 1.133.228.46.374.734.44.823 0 .03.016.044.048.044l.098 0c.227 0 .382-.178.463-.533.082-.356.285-.697.61-1.023l0-.222a1.337 1.337 0 0 1-.122-.133c-.049-.06-.09-.089-.122-.089L143 306zm15.5.434c-.044-.022-.066 0-.066.066 0 .066.022.088.066.066.044 0 .066-.022.066-.066 0-.044-.022-.066-.066-.066zm-17.1.149l.2 0 0-.166-.2.166zm5 0l.2 0 0-.166-.2 0 0 .166zm-2.4-2.649c0 .21.024.441.071.691.048.25.158.375.329.375.114 0 .214-.04.3-.118a.429.429 0 0 1 .3-.119l0-.158-.429 0-.057-.473a5.955 5.955 0 0 1-.043-.375 3.431 3.431 0 0 0-.042-.336l0-.118c0-.08.014-.132.042-.158a.592.592 0 0 1 .115-.08.288.288 0 0 0 .114-.118.63.63 0 0 0 .043-.276c0-.105-.01-.243-.029-.414-.019-.171-.095-.257-.228-.257 0 .395-.081.717-.243.967-.162.25-.243.572-.243.967zm14.417-.351l.166 0 0-.166-.166 0 0 .166zm1.1-.265c-.11 0-.166.06-.166.182 0 .122.055.182.166.182.088 0 .132-.06.132-.182 0-.122-.044-.182-.132-.182zm-7.017-.967c-.088 0-.133.05-.133.149 0 .1.045.15.133.15.088 0 .133-.05.133-.15 0-.1-.045-.15-.133-.15zm-2.083-.351c.022-.043.05-.124.083-.242a1.4 1.4 0 0 1 .083-.242.743.743 0 0 0 .1-.161.557.557 0 0 0 .066-.161c0-.065-.056-.13-.166-.194l-.166 0a.323.323 0 0 1-.1.113c-.044.032-.066.059-.066.08l.166.807zm3-.434l.166-.132-.166 0 0 .132zm-9.166.033l.498 0c-.045-.11-.094-.17-.15-.182a.931.931 0 0 0-.182-.016.273.273 0 0 0-.083.016.273.273 0 0 1-.083.017l0 .165zm13.249-.265c-.088 0-.133.056-.133.166 0 .11.045.166.133.166.088 0 .133-.056.133-.166 0-.11-.045-.166-.133-.166zm-3.215-.933c0 .11.044.182.132.215a.85.85 0 0 0 .298.05c0-.11-.038-.188-.116-.232a.936.936 0 0 0-.281-.1l-.033.067zm-1.884.265a.343.343 0 0 0 .198-.332l-.198 0 0 .332zm.9-1.249c0 .155.022.265.066.332.045.066.155.1.332.1 0-.288-.133-.52-.398-.697l0 .265zm-11.818-2.066c-.088 0-.132.05-.132.149 0 .1.044.15.132.15.11 0 .166-.05.166-.15 0-.1-.055-.15-.166-.15zm-.265-.52l.53-.53.034-.132-.564 0 0 .662zm1.353-1.331c.044-.044.027-.066-.05-.066-.077 0-.116.022-.116.066.022.044.055.066.1.066.044 0 .066-.022.066-.066zm-.071-.07c-.044-.045-.066-.028-.066.049 0 .077.022.116.066.116.044-.044.066-.083.066-.116 0-.033-.022-.05-.066-.05zm47.5 17.41a20.76 20.76 0 0 0-.478.174c-.243.09-.402.161-.479.213-.128.051-.21.174-.249.367-.038.193-.121.29-.249.29 0-.541-.07-.877-.21-1.006a.696.696 0 0 0-.536-.174 4.644 4.644 0 0 0-.689.097.895.895 0 0 1-.708-.155c-.153-.103-.236-.212-.249-.328a3.014 3.014 0 0 1-.019-.329.488.488 0 0 0-.057-.251c-.039-.065-.173-.097-.402-.097-.23 0-.39.11-.479.329-.09.219-.287.328-.593.328 0-.206.076-.374.23-.502a.626.626 0 0 0 .23-.503c0-.155-.045-.252-.135-.29a.817.817 0 0 0-.325-.058 3.51 3.51 0 0 0-.383.02.455.455 0 0 1-.306-.059c-.051-.026-.147-.122-.287-.29-.14-.168-.236-.251-.287-.251l-.077 0c-.025 0-.044-.007-.057-.02-.013-.013-.032-.019-.058-.019-.204 0-.357.07-.459.213a.49.49 0 0 1-.421.212c-.026 0-.083-.077-.172-.232-.09-.154-.185-.328-.287-.522a7.37 7.37 0 0 1-.268-.56c-.077-.181-.115-.297-.115-.349l0-.116c.025 0 .07-.051.134-.154.064-.103.083-.168.057-.194-.025-.051-.121-.154-.287-.31-.166-.154-.249-.244-.249-.27-.05-.051-.095-.148-.134-.29a6.64 6.64 0 0 0-.095-.329l-.536-4.602a3.308 3.308 0 0 0-.172-.464 4.545 4.545 0 0 0-.25-.503 1.98 1.98 0 0 0-.363.078 2.48 2.48 0 0 0-.364.116c-.05.051-.089.16-.114.328-.026.168-.064.252-.115.252-.026.051-.096.039-.21-.039-.116-.077-.198-.116-.25-.116 0 .052.026.18.077.387.051.206.064.335.038.387l-.095.096c-.039.039-.07.058-.096.058l-1.531 0a2.47 2.47 0 0 1-.287.329l-.287.29c-.026 0-.077-.026-.153-.077a.37.37 0 0 0-.192-.078c0 .232-.013.387-.038.464-.026.078.038.22.191.426-.23.051-.395.116-.497.193a.908.908 0 0 0-.25.29 2.7 2.7 0 0 0-.171.387 3.221 3.221 0 0 1-.23.483.952.952 0 0 0-.172-.116.517.517 0 0 0-.173-.077c-.025-.026-.031-.026-.019 0 .013.026-.006.039-.057.039 0 .283.032.445.096.483a.43.43 0 0 0 .23.058.31.31 0 0 1 .229.097c.064.064.096.264.096.6-.256 0-.447.05-.575.154a1.297 1.297 0 0 0-.325.406c-.09.168-.179.348-.268.542a1.55 1.55 0 0 1-.402.522.438.438 0 0 1-.325.116l-.402 0c-.128 0-.249.006-.364.019-.115.013-.185.084-.21.213-.051.206-.083.528-.096.967-.013.438-.108.76-.287.966-.383 0-.676.046-.88.136-.205.09-.377.213-.517.367-.14.155-.274.342-.402.561-.128.22-.293.445-.498.677a.917.917 0 0 1-.191-.426 3.498 3.498 0 0 0-.096-.425.495.495 0 0 0-.21-.29c-.102-.065-.306-.071-.613-.02a1.293 1.293 0 0 0-.23.175.847.847 0 0 0-.19.212l.095.097a.53.53 0 0 0 .134.097l.191 0c0-.026.051-.065.153-.116a.667.667 0 0 1 .192-.078c.025 0 .064.026.115.078.05.051.076.09.076.116l0 .038c0 .026.013.052.038.078l-.038.077c-.025.026-.09.084-.191.174a.847.847 0 0 0-.192.213c-.05.077-.114.264-.191.56-.077.297-.128.497-.153.6-.204-.103-.408-.425-.613-.967a15.785 15.785 0 0 1-.555-1.837c-.165-.683-.3-1.334-.401-1.953-.103-.619-.154-1.057-.154-1.315l0-.27a.619.619 0 0 0 .173.096c.089.039.16.071.21.097l.153 0a.844.844 0 0 0 .21-.194c.09-.103.16-.18.211-.232l0-.077a3.888 3.888 0 0 1-.574-.31c-.357-.18-.561-.296-.612-.347a9.135 9.135 0 0 1-.134-1.025 17.96 17.96 0 0 1-.02-.91c0-.36.033-.708.096-1.043a5.56 5.56 0 0 0 .096-1.044c0-.413-.032-.813-.096-1.2a7.606 7.606 0 0 1-.095-1.237l0-.077c0-.026.05-.09.153-.194.102-.103.178-.167.23-.193l0-.077-.096-.213a8.547 8.547 0 0 1-.421-1.18 2.484 2.484 0 0 1-.096-.657.79.79 0 0 1 .115-.445.72.72 0 0 0 .115-.406l0-.077c0-.052-.032-.155-.096-.31a1.38 1.38 0 0 1-.096-.27c0-.104.045-.162.134-.174.09-.013.192-.026.306-.04a.794.794 0 0 0 .364-.154c.128-.09.23-.29.306-.6.051-.05.051-.167 0-.347a1.757 1.757 0 0 1-.076-.348c-.128 0-.275-.02-.44-.058-.166-.04-.25.045-.25.251l0 .077.422.426 0 .193a1.79 1.79 0 0 1-.287.097c-.14.038-.236.058-.287.058l0-1.392c.306 0 .53-.116.67-.349.14-.232.21-.49.21-.773.077 0 .21.039.402.116a5.344 5.344 0 0 1 1.206.715c.178.142.293.265.344.368-.153.051-.3.155-.44.31-.14.154-.274.231-.402.231l-.115 0a.517.517 0 0 1-.172-.077.517.517 0 0 0-.172-.077l0 .386c.025 0 .121.007.287.02.166.013.344.038.536.077.191.039.357.097.497.174.14.077.21.168.21.27 0 .31-.101.574-.305.794a1.117 1.117 0 0 0-.307.792c0 .155.064.271.192.349.127.077.261.154.402.232.14.077.274.174.402.29.127.116.191.277.191.483 0 .052-.006.148-.02.29a5.144 5.144 0 0 0-.018.251c0 .052-.032.155-.096.31a1.38 1.38 0 0 0-.096.27c0 .284.109.465.326.542.217.077.414.116.593.116 0 .284.026.664.077 1.14.05.478.102.78.153.91.025.026.089.148.191.367.102.22.166.355.191.406l0 .194a1.962 1.962 0 0 1-.267.174c-.154.09-.256.148-.307.174l0 .193c.179.593.32.967.421 1.122.102.154.204.238.307.251.102.013.21.026.325.039.115.013.274.187.478.522l.192-.194c-.077-.773-.064-1.308.038-1.605.102-.296.249-.496.44-.599.192-.103.415-.206.67-.31.255-.103.498-.347.727-.734.256-.49.46-.903.613-1.238.153-.335.46-.696.918-1.083.026.103.064.245.115.426.051.18.14.296.268.348.026-.052.083-.13.173-.232.089-.103.159-.155.21-.155.026-.026.09 0 .191.077.102.078.166.116.192.116.05 0 .172-.012.363-.038a3.78 3.78 0 0 1 .364-.039c0-.051-.032-.167-.096-.348-.063-.18-.083-.296-.057-.348 0-.026.057-.065.172-.116a.847.847 0 0 1 .21-.077c.026-.026.065-.058.116-.097.05-.039.076-.071.076-.097 0-.026-.019-.11-.057-.251a42.469 42.469 0 0 0-.134-.484c-.051-.18-.096-.354-.134-.522a1.864 1.864 0 0 1-.058-.367c0-.129.07-.322.21-.58.141-.258.262-.413.365-.464.127.025.197.09.21.193.013.103.006.22-.02.348a1.207 1.207 0 0 0-.018.368c.013.116.083.186.21.212a.963.963 0 0 0 .115-.174.48.48 0 0 0 .077-.212c0-.13.025-.387.076-.774.051-.387.077-.632.077-.735 0-.051.025-.096.076-.135a.253.253 0 0 1 .153-.058c.026 0 .083.02.173.058.089.039.16.084.21.135l0 .078c0 .154-.025.257-.076.309-.051.052-.077.206-.077.464.026 0 .051.02.077.058.025.039.05.058.076.058.026-.051.083-.155.172-.31a6.5 6.5 0 0 0 .173-.309l.115 0c.153 0 .312.045.478.136.166.09.338.187.517.29.178.103.357.212.536.328.178.116.331.187.459.213.051.026.153.026.306 0 .153-.026.243-.026.268 0 .026.052.058.187.096.406.038.22.07.342.096.368.076.18.19.328.344.444l.46.348c.152.116.286.252.401.407.115.154.173.36.173.618a.72.72 0 0 1-.115.406.656.656 0 0 0-.115.368c0 .154.064.258.191.31.128.05.192.167.192.347l0 .232c0 .052-.026.213-.077.484-.05.27-.09.432-.115.483l0 .077c0 .155.026.271.077.349a.496.496 0 0 0 .191.174c.077.038.16.077.249.116a.63.63 0 0 1 .249.212c.025.052.025.155 0 .31-.026.154-.026.258 0 .31.025 0 .09.076.191.231.102.155.153.258.153.31.026.077.064.206.115.386.051.18.096.374.134.58.038.207.077.4.115.58.038.181.057.31.057.387l.345.503.42 1.934.958.89.919.695.765.542.69.967.267.232 0 .58zm-2-1.009l.265 0c.117-.022.27-.05.456-.082.186-.034.279-.061.279-.083l0-.166-.353-.133a2.633 2.633 0 0 0-.309-.116 4.59 4.59 0 0 1-.25-.082l.06.132c0 .022.004.039.014.05.01.01.014.027.014.05l0 .033c-.039 0-.068-.011-.088-.033a.343.343 0 0 0-.088-.067l0 .497zm-19.566-1.248l.132 0 0-.166-.132 0 0 .166zm18.867-.269c0 .266.133.398.398.398 0-.177-.022-.298-.066-.364-.045-.067-.155-.078-.332-.034zm-.784-.963c-.11 0-.166.05-.166.149 0 .1.055.15.166.15.088 0 .132-.05.132-.15 0-.1-.044-.15-.132-.15zm-1.282-1.685l.166.165a.866.866 0 0 1 .182-.132.443.443 0 0 0 .182-.232l0-.166c-.022 0-.05-.022-.083-.066-.033-.044-.072-.066-.116-.066-.044 0-.105.044-.182.132a4.623 4.623 0 0 1-.15.166l0 .199zm1.232.685c-.066 0-.1.05-.1.149 0 .1.034.15.1.15.11 0 .166-.05.166-.15 0-.1-.056-.15-.166-.15zm-2.134-2.375c.02.065.086.22.197.463.111.244.217.43.318.561l.152-.293a1.937 1.937 0 0 0-.273-.731 3.284 3.284 0 0 0-.454-.586l-.121-.195a.846.846 0 0 1-.091-.195c-.02.163-.03.309-.03.439a1.7 1.7 0 0 0-.031.341l0 .147.333.049zm-15.9 1.59l.133 0 0-.132-.132.132zM169 306c0 .296.114.674.341 1.133.228.46.374.734.44.823 0 .03.016.044.048.044l.098 0c.227 0 .382-.178.463-.533.082-.356.285-.697.61-1.023l0-.222a1.337 1.337 0 0 1-.122-.133c-.049-.06-.09-.089-.122-.089L169 306zm15.5.434c-.044-.022-.066 0-.066.066 0 .066.022.088.066.066.044 0 .066-.022.066-.066 0-.044-.022-.066-.066-.066zm-17.1.149l.2 0 0-.166-.2.166zm6 0l.2 0 0-.166-.2 0 0 .166zm-3.4-2.649c0 .21.024.441.071.691.048.25.158.375.329.375.114 0 .214-.04.3-.118a.429.429 0 0 1 .3-.119l0-.158-.429 0-.057-.473a5.955 5.955 0 0 1-.043-.375 3.431 3.431 0 0 0-.042-.336l0-.118c0-.08.014-.132.042-.158a.592.592 0 0 1 .115-.08.288.288 0 0 0 .114-.118.63.63 0 0 0 .043-.276c0-.105-.01-.243-.029-.414-.019-.171-.095-.257-.228-.257 0 .395-.081.717-.243.967-.162.25-.243.572-.243.967zm14.417-.351l.166 0 0-.166-.166 0 0 .166zm1.1-.265c-.11 0-.166.06-.166.182 0 .122.055.182.166.182.088 0 .132-.06.132-.182 0-.122-.044-.182-.132-.182zm-8.017-.967c-.088 0-.133.05-.133.149 0 .1.045.15.133.15.088 0 .133-.05.133-.15 0-.1-.045-.15-.133-.15zm-2.083-.351c.022-.043.05-.124.083-.242a1.4 1.4 0 0 1 .083-.242.743.743 0 0 0 .1-.161.557.557 0 0 0 .066-.161c0-.065-.056-.13-.166-.194l-.166 0a.323.323 0 0 1-.1.113c-.044.032-.066.059-.066.08l.166.807zm3-.434l.166-.132-.166 0 0 .132zm-8.166.033l.498 0c-.045-.11-.094-.17-.15-.182a.931.931 0 0 0-.182-.016.273.273 0 0 0-.083.016.273.273 0 0 1-.083.017l0 .165zm13.249-.265c-.088 0-.133.056-.133.166 0 .11.045.166.133.166.088 0 .133-.056.133-.166 0-.11-.045-.166-.133-.166zm-3.215-.933c0 .11.044.182.132.215a.85.85 0 0 0 .298.05c0-.11-.038-.188-.116-.232a.936.936 0 0 0-.281-.1l-.033.067zm-1.884.265a.343.343 0 0 0 .198-.332l-.198 0 0 .332zm.9-1.249c0 .155.022.265.066.332.045.066.155.1.332.1 0-.288-.133-.52-.398-.697l0 .265zm-11.818-2.066c-.088 0-.132.05-.132.149 0 .1.044.15.132.15.11 0 .166-.05.166-.15 0-.1-.055-.15-.166-.15zm-.265-.52l.53-.53.034-.132-.564 0 0 .662zm1.353-1.331c.044-.044.027-.066-.05-.066-.077 0-.116.022-.116.066.022.044.055.066.1.066.044 0 .066-.022.066-.066zm-.071-.07c-.044-.045-.066-.028-.066.049 0 .077.022.116.066.116.044-.044.066-.083.066-.116 0-.033-.022-.05-.066-.05zm41.983 17.595a2.64 2.64 0 0 1-.762-.04 5.119 5.119 0 0 1-.918-.253 5.254 5.254 0 0 1-.86-.41c-.26-.155-.443-.324-.547-.506l0-.195c-.078-.39-.202-.696-.371-.917a3.028 3.028 0 0 0-.528-.546 28.683 28.683 0 0 0-.508-.39 1.085 1.085 0 0 1-.351-.448.367.367 0 0 1-.02-.215c.013-.09.02-.182.02-.273 0-.09-.026-.156-.078-.195-.053-.039-.157-.045-.313-.02-.026.027-.059.105-.098.235-.039.13-.071.22-.097.273a1.39 1.39 0 0 1-.313.487 4.773 4.773 0 0 1-.528.488 4.504 4.504 0 0 0-.508.468.737.737 0 0 0-.215.507l0 .195c.053-.026.15-.065.294-.117.143-.052.24-.078.293-.078.026 0 .058.026.097.078.04.052.072.09.098.117l0 .039c0 .026.013.052.04.078 0 .13-.027.201-.08.214a.728.728 0 0 1-.175.02.286.286 0 0 0-.176.058c-.052.04-.078.137-.078.293-.026 0-.085.078-.176.234-.091.156-.15.234-.176.234 0-.052-.09-.065-.273-.04-.183.027-.287.027-.313 0-.13-.207-.228-.298-.293-.272-.065.026-.202.039-.41.039a.841.841 0 0 1-.47.331 18.71 18.71 0 0 0-.644.215 2.55 2.55 0 0 0-.566.273.49.49 0 0 0-.235.429l-2.188 0c-.026.13-.085.195-.176.195l-.293 0c-.651 0-1.257-.13-1.817-.39-.56-.26-.84-.728-.84-1.404 0-.234.006-.442.02-.624.012-.182.084-.39.214-.624-.052-.052-.15-.098-.293-.137a1.377 1.377 0 0 0-.293-.058c-.052 0-.15.02-.293.058-.143.04-.241.085-.293.137a.512.512 0 0 1 .117.253c.026.117.04.202.04.254a.82.82 0 0 0 .019.136.82.82 0 0 1 .02.137c-.313 0-.541-.091-.685-.273a1.74 1.74 0 0 1-.312-.663 3.278 3.278 0 0 1-.098-.8c0-.273-.026-.5-.078-.682a.683.683 0 0 0-.078-.195 3.112 3.112 0 0 0-.196-.332c-.078-.117-.15-.227-.214-.331-.066-.104-.098-.17-.098-.195a4.107 4.107 0 0 1-.098-.39 16.99 16.99 0 0 1-.117-.605 16.99 16.99 0 0 0-.117-.605 2.146 2.146 0 0 1-.059-.39c.052-.026.124-.078.215-.156a.725.725 0 0 0 .176-.195l0-.039c0-.182-.033-.338-.098-.468a.864.864 0 0 1-.098-.39c0-.13.04-.28.118-.448.078-.17.195-.254.351-.254l.118 0a.33.33 0 0 1 .136.156.46.46 0 0 1 .059.195l.352-.156a.592.592 0 0 0-.352-.312 8.492 8.492 0 0 0-.45-.136 1.75 1.75 0 0 1-.39-.156c-.117-.065-.176-.176-.176-.332 0-.104.04-.175.117-.214a.843.843 0 0 1 .274-.078.843.843 0 0 0 .273-.078c.078-.04.118-.137.118-.293l1.21 0 0-.35-.976-.39 0-.235c0-.494.085-.845.254-1.053a1.32 1.32 0 0 1 .586-.429c.222-.078.436-.13.645-.156.208-.026.352-.117.43-.273a.637.637 0 0 1-.176-.059c-.091-.039-.15-.084-.176-.136l-.039-.078c0-.234.072-.397.215-.488.143-.09.312-.156.508-.195l.586-.117c.195-.039.345-.097.45-.175.025 0 .038-.091.038-.273a.735.735 0 0 0-.039-.234c.053-.052.163-.15.333-.293.169-.143.267-.24.293-.292l0-.312-.391-.546 0-.195a.725.725 0 0 1 .176-.195c.09-.078.163-.13.215-.156l.078-.04.078.04a.612.612 0 0 1 .156.117c.052.052.078.09.078.117l1.524 0c0 .052.026.117.079.195.052.078.104.117.156.117.365.026.638-.04.82-.195.183-.156.352-.332.508-.527.157-.195.346-.37.567-.526.221-.156.54-.221.957-.195.079 0 .26.097.547.292.287.195.6.416.938.663.339.247.665.488.977.722.313.234.534.39.665.468.13.078.247.201.351.37.104.17.196.364.274.585.078.221.136.43.176.624.039.195.045.345.02.449a.57.57 0 0 1 .37.214c.092.117.176.24.254.37.078.13.157.241.235.332.078.091.195.137.351.137-.026.078-.013.195.04.351.052.156.11.325.175.507.066.182.13.351.196.507.065.156.097.273.097.351l0 .234.079.078c.026.026.065.04.117.04l0 .116a.3.3 0 0 0 .039.117c-.26 0-.495-.052-.703-.156a1.468 1.468 0 0 0-.665-.156c0 .026.033.182.098.468.065.286.15.43.254.43l1.524 0c.052 0 .065.051.039.155a1.749 1.749 0 0 1-.137.351c-.065.13-.124.254-.176.37-.052.118-.065.202-.039.254l.391 1.287c.052.208.17.3.352.273.182-.026.286.078.312.312 0 .052-.058.156-.175.312-.118.156-.163.273-.137.351.026.13.09.234.195.312.104.078.209.15.313.215.104.065.202.143.293.234.091.091.124.189.098.293l-.118.819c0 .052.052.117.157.195.104.078.228.15.37.214.144.065.28.137.411.215.13.078.209.143.235.195 0 .026.006.045.02.058.012.013.019.046.019.098.052.156.104.364.156.624.052.26.104.416.156.468.026.052.17.13.43.234l.88.35c.325.13.644.274.957.43.312.156.534.299.664.429-.234.052-.371.136-.41.253a.71.71 0 0 0-.02.37c.026.13.052.267.078.41a.443.443 0 0 1-.117.39c-.104.117-.319.215-.645.293-.325.078-.814.117-1.465.117-.156 0-.274-.039-.352-.117a1.2 1.2 0 0 1-.195-.254 3.48 3.48 0 0 1-.156-.312.732.732 0 0 0-.235-.292zm-11.908-3.525c.044-.044.022-.066-.066-.066-.089 0-.122.022-.1.066.022.044.056.066.1.066.044 0 .066-.022.066-.066zm-.075-.15c-.088 0-.133.05-.133.15 0 .1.045.15.133.15.088 0 .133-.05.133-.15 0-.1-.045-.15-.133-.15zm3.983 0c-.088 0-.132.05-.132.15 0 .1.044.15.132.15.11 0 .166-.05.166-.15 0-.1-.055-.15-.166-.15zm-2.182-.618c.044-.044.122-.105.232-.182.11-.078.166-.172.166-.282l-.398 0 0 .464zm-4.551-2.31c.132.124.257.344.375.657.118.313.257.507.414.583.264.075.474.137.632.188.158.05.303.081.434.094l.395.037c.132.013.303.019.513.019.263 0 .448-.019.553-.056a.96.96 0 0 0 .276-.15c.08-.063.165-.132.257-.208.092-.075.256-.162.493-.263.053-.025.217-.056.494-.094.276-.037.44-.069.493-.094.316-.125.592-.4.829-.827.237-.426.42-.777.553-1.052.052-.126.17-.207.355-.245.184-.037.329-.081.434-.131l0-.15a1.685 1.685 0 0 0-.237-.151c-.131-.075-.197-.138-.197-.188 0-.05.066-.144.197-.282.132-.138.21-.207.237-.207.21-.651.388-1.41.533-2.274.145-.865.217-1.61.217-2.237 0-.326-.079-.583-.237-.77a1.367 1.367 0 0 0-.631-.414 3.62 3.62 0 0 0-.85-.17 11.237 11.237 0 0 0-.927-.037c-.079 0-.27.075-.572.226-.303.15-.619.32-.947.507-.33.188-.625.363-.889.526a5.633 5.633 0 0 0-.434.282c0 .05-.026.17-.079.357a2.37 2.37 0 0 1-.118.358c-.08.025-.145.05-.198.075-.026.025-.065.037-.118.037-.026 0-.053.013-.079.038l-.75.677c-.026 0-.04.012-.04.037l0 .075c0 .126.04.207.119.245.079.037.118.156.118.357 0 .175-.006.32-.02.432a1.538 1.538 0 0 1-.078.339l-.336.958c-.105.326-.263.57-.473.733a2.248 2.248 0 0 1-.652.358 6.767 6.767 0 0 1-.572.169c-.158.037-.237.106-.237.206 0 .226.066.376.197.452a1.3 1.3 0 0 0 .474.15c.184.025.362.05.533.075.171.025.283.113.335.263-.078.1-.197.2-.355.301-.158.1-.302.163-.434.188zm6.667 2.144l.166 0 0-.132-.166 0 0 .132zm1.934-.9l.298 0 0-.332-.298 0 0 .332zm-2.2-1.1c0 .11.05.177.15.2.1.021.193.032.282.032l.265 0-.166-.596c-.088.022-.199.06-.331.116-.133.055-.2.138-.2.248zm-3.734-7.983l.166 0 0-.166-.166 0 0 .166zm4.066-3.232c-.066 0-.099.05-.099.149 0 .1.033.15.1.15.088 0 .132-.05.132-.15 0-.1-.044-.15-.133-.15zm.096-.851c.022-.044 0-.066-.067-.066-.066 0-.099.022-.099.066.044.044.083.066.116.066.033 0 .05-.022.05-.066zm43.47 17.998c-.133.13-.278.252-.436.369-.162.12-.31.232-.445.338l0-.517a.444.444 0 0 0-.344.159 1.233 1.233 0 0 0-.223.358c-.054.132-.101.252-.141.358-.04.106-.075.159-.102.159-.161 0-.242-.12-.242-.358a.8.8 0 0 1 .141-.477.871.871 0 0 0 .142-.517c0-.424-.175-.636-.526-.636-.027 0-.054.013-.081.04-.027 0-.074.04-.142.119-.067.08-.114.132-.141.159-.054 0-.21-.007-.466-.02-.256-.013-.411-.007-.465.02-.027 0-.074.046-.142.139a1.73 1.73 0 0 1-.141.179l-.567.278-.202-.278-.121 0a.456.456 0 0 1-.142-.02.338.338 0 0 0-.101-.02c-.189 0-.35.033-.486.1a1.093 1.093 0 0 1-.485.099c-.135 0-.223-.027-.263-.08-.04-.053-.142-.08-.304-.08l-.162 0c-.054.027-.141.113-.263.26a2.133 2.133 0 0 0-.222.297.649.649 0 0 1-.101-.198.75.75 0 0 1-.061-.239c.027-.026.081-.12.162-.278.08-.16.121-.265.121-.318l.04-.12c0-.212-.08-.318-.242-.318-.135 0-.21.06-.223.18-.013.118-.02.231-.02.337-.189 0-.263-.12-.222-.358.04-.238.033-.384-.02-.437-.028-.027-.082-.046-.162-.06-.081-.013-.169-.026-.263-.04a.652.652 0 0 1-.243-.079c-.068-.04-.101-.113-.101-.219 0-.132.02-.245.06-.338a.738.738 0 0 0 .061-.298l0-.199c0-.026-.04-.053-.121-.08a.672.672 0 0 0-.162-.039c-.19 0-.31.033-.364.1a.7.7 0 0 0-.122.218 1.09 1.09 0 0 1-.1.219c-.041.066-.143.1-.304.1l0-.319c0-.026-.027-.08-.081-.159-.054-.08-.081-.132-.081-.159 0-.106.054-.212.162-.318l.121-.12c.027-.052.027-.138 0-.258a1.339 1.339 0 0 1-.04-.258.483.483 0 0 0-.203.06.483.483 0 0 1-.202.06c0-.027-.04-.094-.121-.2-.081-.106-.135-.159-.162-.159l-.324 0a.668.668 0 0 0-.101.16c-.04.079-.047.145-.02.198.027.133.08.212.161.239a.84.84 0 0 0 .263.04c.095 0 .169.006.223.02.054.013.08.085.08.218l-1.01 0c0-.292-.041-.51-.122-.656a1.034 1.034 0 0 0-.283-.338 7.094 7.094 0 0 1-.284-.219c-.08-.066-.12-.165-.12-.298l0-.08c.026 0 .053-.013.08-.04.054-.052.094-.079.121-.079l0-.12a.281.281 0 0 0-.182-.277.281.281 0 0 1-.182-.279c0-.053.007-.1.02-.139a.322.322 0 0 0 .02-.1c0-.026.02-.072.061-.138.04-.067.061-.113.061-.14 0-.053-.067-.112-.202-.179-.135-.066-.203-.125-.203-.178-.027 0-.04-.014-.04-.04l0-.08c0-.185.067-.311.202-.377.135-.067.29-.113.466-.14.175-.026.35-.06.526-.1.175-.039.29-.125.344-.258-.054-.132-.149-.198-.284-.198-.027 0-.047.006-.06.02-.014.013-.034.02-.061.02l-.04 0c-.027 0-.102.046-.223.139-.121.092-.196.139-.223.139l-.202 0-.121-.12a.672.672 0 0 0-.162.04c-.081.027-.122.053-.122.08-.027-.027-.04-.086-.04-.18l0-.178a.94.94 0 0 1 .162-.497c.108-.172.236-.338.384-.497.149-.16.277-.305.385-.437.108-.133.161-.24.161-.319a.877.877 0 0 0-.161-.536.814.814 0 0 1-.162-.497.79.79 0 0 1 .263-.577c.175-.172.29-.404.344-.696l0-.596c.027-.08.067-.12.121-.12a.504.504 0 0 0 .182-.04.312.312 0 0 0 .162-.158c.04-.08.06-.226.06-.438l.284 0 0 .756a6.98 6.98 0 0 1 .263-.239c.121-.106.209-.159.263-.159l.162.04c.108.026.222.066.344.12.121.052.236.105.344.158.108.053.175.08.202.08.027 0 .054-.013.08-.04l.041-.04c.027-.026.04-.053.04-.08a9.3 9.3 0 0 1-.464-.377c-.203-.172-.398-.258-.587-.258l0-.517c.054.026.114.053.182.08a.436.436 0 0 1 .142.079l.161 0c0-.027.02-.08.061-.16a.476.476 0 0 0 .06-.158l.163 0c0 .159.033.324.1.497a.824.824 0 0 0 .385.417.47.47 0 0 0 .142-.04.47.47 0 0 1 .141-.04l0-1.311c-.08-.027-.256-.126-.526-.299-.27-.172-.404-.285-.404-.338l0-.08a4.3 4.3 0 0 1 .384-.635c.122-.16.358-.239.708-.239l.243 0a.253.253 0 0 1 .121.14.45.45 0 0 1 .04.138c.055-.026.129-.126.223-.298.095-.172.196-.358.304-.556.108-.2.216-.372.324-.517.107-.146.202-.22.283-.22 0 .027-.007.153-.02.379a69.7 69.7 0 0 0-.04.715c-.014.252-.028.49-.041.716-.014.225-.02.351-.02.378 0 .053-.061.046-.183-.02-.121-.066-.195-.1-.222-.1a.924.924 0 0 0-.162.24.918.918 0 0 1-.121.198c-.054.053-.054.093 0 .12 0 .026.013.052.04.079l.85 0c0 .026-.02.066-.06.119-.041.053-.075.08-.102.08-.054.053-.04.099.04.139.081.04.068.06-.04.06l.526.119 0-1.193.526 0 .405.238c.107.053.202.113.283.18.08.066.121.085.121.059a8.717 8.717 0 0 1-.425-.497 8.718 8.718 0 0 0-.263-.318c-.08-.093-.135-.14-.162-.14.027-.105.081-.132.162-.079.081.053.155.1.223.14.067.039.128.032.182-.02.054-.054.08-.226.08-.518a1.05 1.05 0 0 0-.1-.477c-.068-.132-.101-.331-.101-.596 0-.027.087-.007.263.06.175.066.263.086.263.06a.436.436 0 0 0 .141.079.436.436 0 0 1 .142.08l.121 0c.054-.027.088-.08.101-.16.014-.08.034-.12.061-.12.027-.026.142-.125.344-.297.202-.173.357-.272.465-.298.135-.027.257-.067.364-.12.108-.026.196-.053.263-.08a.47.47 0 0 1 .142-.04c.027 0 .081.014.162.04.162.054.297.08.405.08.161.053.35.093.566.12.027 0 .014.033-.04.099-.054.066-.115.14-.183.219-.067.08-.128.145-.182.198-.054.053-.067.08-.04.08a.848.848 0 0 0 .506-.16c.148-.105.27-.224.364-.357.094-.133.189-.252.283-.358a.444.444 0 0 1 .344-.159c.081 0 .169.047.263.14.094.092.196.198.304.317.107.12.215.226.323.318.108.093.203.14.283.14.027 0 .054-.014.081-.04a2.64 2.64 0 0 0 .102-.239.75.75 0 0 0 .06-.238c0-.053-.027-.086-.08-.1a4.013 4.013 0 0 0-.183-.04.449.449 0 0 1-.182-.079c-.054-.04-.08-.126-.08-.258 0-.08.06-.12.181-.12a1.727 1.727 0 0 1 .627.12c.054.026.014.013-.12-.04l.849.835c.027.053.074.053.141 0a.502.502 0 0 0 .142-.16c.027-.052.054-.132.08-.238.028-.106.041-.172.041-.199l.203 0c.054.027.182.053.384.08.202.026.33.053.385.08 0 .052.013.198.04.437.027.238.054.384.08.437 0 .027.021.053.062.08.04.026.074.053.1.08a.77.77 0 0 0 .102-.14c.04-.066.06-.113.06-.14l0-1.51.122.159.486 2.068.89-.716.04-.08c0-.132-.094-.198-.283-.198-.189 0-.31-.067-.364-.2.027-.132.141-.191.344-.178.202.013.317.02.344.02l.364 0c.027.026.074.112.141.258.068.146.115.272.142.378l0 .04a.6.6 0 0 1-.142.377 1.61 1.61 0 0 1-.294.292c.113-.076.184-.09.234-.053.054.04.1.1.141.179.04.08.075.159.101.238.027.08.068.12.122.12a.66.66 0 0 0 .182-.06.383.383 0 0 0 .131-.076c-.044.045-.043.083-.01.116a1 1 0 0 0 .203.14c.094.052.182.098.263.138a.34.34 0 0 1 .162.14c0 .052.02.178.06.377.04.199.06.325.06.378l0 1.193c0 .132.035.212.102.238.067.027.142.053.223.08l.242.08a.388.388 0 0 1 .203.158c0 .027-.02.06-.061.1l-.101.1-.122 0a9.843 9.843 0 0 1-.647-.299 6.858 6.858 0 0 1-.566-.298c-.135.026-.21.1-.223.218a2.74 2.74 0 0 0-.02.299c-.189 0-.391-.053-.607-.16a2.006 2.006 0 0 1-.526-.357c.135-.053.202-.133.202-.239l0-.238a.906.906 0 0 0-.02-.18.824.824 0 0 1-.02-.138c0-.027-.068-.087-.203-.18a2.296 2.296 0 0 1-.283-.218l-.04 0a.718.718 0 0 0-.526.199 6.606 6.606 0 0 1-.445.397l-.081.04c-.027 0-.054-.013-.081-.04a1.73 1.73 0 0 1-.142-.179c-.067-.092-.115-.139-.141-.139-.054-.026-.183-.033-.385-.02-.202.014-.33.02-.384.02l-.162-.159c-.081-.08-.135-.12-.162-.12l-.04 0c-.081 0-.162.047-.243.14a8.641 8.641 0 0 0-.263.318l-.283.358a.572.572 0 0 1-.344.219c-.054 0-.176.02-.365.06a6.91 6.91 0 0 1-.627.099c-.229.026-.438.053-.627.08a3.59 3.59 0 0 1-.364.039 1.75 1.75 0 0 0-.283.08c-.162.053-.257.08-.284.08l-1.052 0c-.053.132-.114.218-.182.258a.61.61 0 0 1-.303.06c-.216 0-.324-.08-.324-.24 0-.158-.108-.238-.323-.238-.135 0-.23.027-.284.08-.054.053-.148.08-.283.08-.135 0-.23-.04-.283-.12-.054-.08-.149-.12-.283-.12 0 .266.033.464.1.597.068.132.17.305.304.517a.312.312 0 0 1 .06.08.312.312 0 0 0 .062.079c.027.053.04.093.04.12a.395.395 0 0 1-.142.317.938.938 0 0 1-.344.18 6.255 6.255 0 0 1-.384.099c-.121.026-.222.04-.303.04l-.04.119c0 .08.02.152.06.218.04.067.141.086.303.06a3.705 3.705 0 0 1-.384.676c-.121.159-.21.384-.263.676l0 .875c0 .08-.027.218-.081.417a8.274 8.274 0 0 0-.142.616c-.04.212-.087.391-.141.537l-.081.219-1.052-.756c-.027-.026-.054-.013-.081.04a.301.301 0 0 0-.04.12c0 .026.02.105.06.238.04.133.06.212.06.239l0 .159c0 .026-.02.112-.06.258-.04.146-.06.232-.06.259 0 .053.04.145.12.278.082.132.136.199.163.199l0 .08c0 .021-.01.034-.028.038a.922.922 0 0 0 .473-.118c.135-.08.31-.12.526-.12l.243 0-.284.716.284 0 0 .795c.296 0 .431.014.404.04-.027.027-.04.186-.04.477l.202 0c.054 0 .175.1.364.298.189.2.324.352.405.458.027.026.074.106.141.238.068.133.115.199.142.199.054.027.182.033.384.02.203-.013.33-.02.385-.02.027 0 .101.053.222.16.122.105.196.158.223.158.027.027.128.033.303.02.176-.013.277-.02.304-.02.054.027.189.06.404.1.216.04.338.06.365.06l.607 0c.296 0 .607.006.93.02.324.012.634.019.93.019l.608 0 0 .517c.216-.053.33-.186.344-.398.013-.212.128-.384.344-.517a4.491 4.491 0 0 1 1.335-.397 8.58 8.58 0 0 0 1.335-.279c.054-.026.169-.08.344-.159.175-.08.277-.119.304-.119l.08 0c.027 0 .048-.007.061-.02a.085.085 0 0 1 .06-.02c0 .027.014.04.041.04l.203 0a.471.471 0 0 0 .283.12l.607 0c.108.026.276.092.506.198.229.106.37.172.424.199.054.053.115.186.183.398.067.212.1.344.1.397l.203 0c-.027.027-.04.053-.04.08 0 .026-.014.04-.04.04 0 .026-.041.072-.122.139a2.582 2.582 0 0 0-.162.139c0 .026.007.08.02.159.014.08.007.132-.02.159a.633.633 0 0 1-.304.318.9.9 0 0 1-.424.12l-.04-.04c0-.027.013-.054.04-.08.026-.027.094-.106.202-.239.108-.132.189-.212.243-.238l0-.16c0-.158-.108-.29-.324-.397a.363.363 0 0 0-.202.259 3.084 3.084 0 0 1-.081.298c-.081.026-.284.053-.607.08-.324.026-.526.052-.607.079a.629.629 0 0 0-.243.08.717.717 0 0 1-.202.079l0 .278c0 .133.013.252.04.358.027.104.105.182.235.235-.056-.022-.154-.014-.296.024-.148.04-.249.086-.303.139-.027 0-.027.086 0 .258.027.172.027.272 0 .298-.054.133-.175.226-.364.279-.189.053-.283.225-.283.517l-.04 0c0-.08-.021-.22-.062-.418a1.912 1.912 0 0 0-.1-.378.442.442 0 0 1-.324-.119.338.338 0 0 0-.102.02.338.338 0 0 1-.1.02l.04.08a1.253 1.253 0 0 0-.081.298 1.253 1.253 0 0 1-.081.298l-.121 0a2.001 2.001 0 0 1-.304.179c-.175.093-.29.139-.344.139-.027.026-.094.033-.202.02a2.184 2.184 0 0 0-.243-.02c-.027.026-.148.08-.364.159-.216.08-.35.12-.405.12-.027.026-.054.039-.08.039l-.082 0c-.188 0-.357-.033-.505-.1a.909.909 0 0 0-.506-.059c-.027-.053-.054-.179-.081-.378-.027-.199-.054-.324-.081-.378a.22.22 0 0 0-.202-.178 2.773 2.773 0 0 1-.324-.06 1.401 1.401 0 0 1-.283-.1c-.081-.04-.108-.125-.081-.258l-.01.009zm.954.502c.177 0 .342-.029.497-.086.155-.057.32-.085.497-.085a.98.98 0 0 0-.033-.158 3.445 3.445 0 0 0-.083-.271 2.091 2.091 0 0 0-.116-.271c-.044-.086-.077-.129-.1-.129l-.066.029-.066.114a.199.199 0 0 0-.033.086.488.488 0 0 0-.066.071c-.022.029-.044.043-.067.043a1.21 1.21 0 0 1-.182.057.815.815 0 0 1-.182.029l0 .571zm1.48-.623c-.022-.022-.033.022-.033.133 0 .11.011.144.033.1.045-.023.067-.061.067-.117 0-.055-.022-.094-.067-.116zm3.067-2.242c-.022 0-.056.061-.1.183a1.359 1.359 0 0 1-.132.281.768.768 0 0 1-.017.15.698.698 0 0 0-.016.116c.176 0 .254-.05.232-.15a.656.656 0 0 1 .033-.348l.132-.099c0-.022.006-.044.017-.066a.147.147 0 0 0 .016-.067l-.165 0zm-12.984.249c-.022 0-.044.017-.066.05-.022.033-.044.05-.066.05l0 .132a.543.543 0 0 1 .083-.066c.033-.022.05-.044.05-.067l0-.099zm13.95-1.017c-.066 0-.099.045-.099.133 0 .088.033.133.1.133.044 0 .066-.045.066-.133 0-.088-.022-.133-.066-.133zm-15-.966c-.066 0-.099.033-.099.099 0 .066.033.1.1.1.044 0 .066-.034.066-.1 0-.066-.022-.1-.066-.1zm-.954-1.918c.022-.022.005-.033-.05-.033-.055 0-.083.011-.083.033 0 .045.022.067.066.067.044 0 .067-.022.067-.067zm-.012-.05c-.133 0-.21.045-.232.133l.1 0c.088 0 .176-.044.264-.132l-.132 0zm-2.033-.049c-.089 0-.133.039-.133.116 0 .077.044.116.133.116.066 0 .099-.039.099-.116 0-.077-.033-.116-.1-.116zm.867.182c.11 0 .188-.044.232-.132l-.232 0 0 .132zm2.265-1.331c-.11 0-.226.06-.348.182-.121.122-.182.238-.182.348.11 0 .265-.022.464-.066.199-.044.298-.144.298-.298l0-.067a.318.318 0 0 0-.232-.1zm-3.149-.785c-.044-.022-.066-.005-.066.05 0 .055.022.072.066.05.044 0 .066-.017.066-.05 0-.033-.022-.05-.066-.05zm3.5-1.083c0 .028.009.068.026.123a.445.445 0 0 1 .027.122c0 .027.052.082.158.164l.21.163c.035.027.097.122.184.285.088.164.167.259.237.286a.643.643 0 0 0 .21.082c.106.027.159.054.159.081.035 0 .078.048.131.143a.564.564 0 0 1 .08.184c.21-.027.359-.102.446-.224a.655.655 0 0 0 .132-.388c0-.245-.061-.538-.184-.878-.123-.34-.395-.51-.816-.51-.246 0-.474.014-.684.04-.21.028-.316.137-.316.327zm-.583.2l.166 0 0-.133-.166 0 0 .132zm.017.115c.022 0 .05-.027.083-.083a.297.297 0 0 0 .05-.149c0-.088-.045-.132-.133-.132l0 .364zm.05-.315c-.067 0-.1.045-.1.133 0 .088.033.133.1.133.088 0 .132-.045.132-.133 0-.088-.044-.133-.133-.133zm2.834-2.066c0 .044.01.11.033.199a.322.322 0 0 0 .132.199.398.398 0 0 0 .15-.199.635.635 0 0 0 .05-.199l-.365 0zm-3.868.315l.1 0 0-.232-.1 0 0 .232zm2.067-.116c0 .044-.017.11-.05.199a.544.544 0 0 1-.083.166l.133 0c0-.022.016-.045.05-.067.032-.022.049-.044.049-.066a5.6 5.6 0 0 1 .017-.298 5.6 5.6 0 0 0 .016-.299.626.626 0 0 0-.199.034c-.066.022-.1.077-.1.165l.034.067.133.099zm-2.299-1.249c0 .11.017.221.05.332.033.11.116.166.249.166.044 0 .099-.006.165-.017.067-.011.1-.06.1-.15 0-.154-.067-.248-.2-.28a1.513 1.513 0 0 0-.364-.05zm2.342.195c-.022-.044-.056-.039-.1.017-.044.055-.044.083 0 .083.022.044.05.05.083.016.033-.033.039-.072.017-.116zm.857-.98l-.1.1.365 0c-.022 0-.044-.01-.066-.033l-.066-.066-.067-.033-.066.033zm5.133-.9l0-.132-.1 0 .1.132zm7.016-.066c0-.044-.022-.066-.066-.066-.044 0-.066.022-.066.066.022.044.05.066.083.066.033 0 .05-.022.05-.066zm-6.132.15c.088-.067.132-.167.132-.3l-.132 0 0 .3zm-1-.067l.132-.166-.132 0 0 .166zm-.95-2.583a.378.378 0 0 1-.05.137.397.397 0 0 0-.05.177c-.022.13-.05.411-.083.843-.033.431-.05.712-.05.843l.133 0c.088-.235.171-.458.249-.667a2.15 2.15 0 0 0 .116-.745c0-.13-.006-.248-.017-.353-.011-.104-.094-.183-.249-.235zm3.817 1.334c0 .133.022.238.066.315.045.078.1.171.166.282.066 0 .1-.033.1-.1.022-.044.038-.165.05-.364.01-.199.016-.332.016-.398a.75.75 0 0 0-.265.05c-.089.033-.133.105-.133.215zm-.801 1.05c-.066 0-.1.039-.1.116 0 .077.034.116.1.116.066 0 .1-.039.1-.116 0-.077-.034-.116-.1-.116zm-2.497-.505c0 .02.016.04.05.06.033.02.06.04.082.061l.133 0a.87.87 0 0 0 .066-.197c.022-.09.044-.136.067-.136.044-.04.143-.091.298-.152.155-.06.254-.1.298-.121l0-.091-.182-.167a.814.814 0 0 0-.182-.136 1.25 1.25 0 0 1-.365.424c-.177.142-.265.293-.265.455zm7.63-.578c-.177 0-.266.11-.266.332l0 .066c.177-.11.266-.243.266-.398zm-7.116.066c-.067 0-.1.045-.1.133 0 .088.033.133.1.133.044 0 .066-.045.066-.133 0-.088-.022-.133-.066-.133zm-6.083.216l.132 0 0-.166-.132.166zm3.933.066c.177 0 .266-.1.266-.298l-.266 0 0 .298zm5.39-2.649a.587.587 0 0 0-.108.216.587.587 0 0 1-.108.216.354.354 0 0 0-.163.163c-.072.072-.108.126-.108.162l-.054.054a5.213 5.213 0 0 0-.135.621A4.852 4.852 0 0 0 247 297l.216 0 .054-.054c0-.036.036-.09.108-.162a.354.354 0 0 1 .163-.162c.072-.036.225-.072.459-.108a4.86 4.86 0 0 1 .405-.055c.072-.036.18-.072.325-.108.144-.036.234-.072.27-.108-.18-.18-.36-.387-.54-.621a6.712 6.712 0 0 1-.433-.622l-.27 0zm-3.757.35c0 .244.08.443.242.598a.726.726 0 0 0 .213-.398l.454.265c.06 0 .091-.044.091-.133 0-.132-.03-.27-.09-.414-.062-.144-.142-.216-.243-.216-.142 0-.288.006-.44.017-.151.011-.227.105-.227.282zm1.483.084c-.022.022-.033.044-.033.066-.022 0-.033.011-.033.033l0 .066.033.034.1-.133.033-.066c0-.022-.011-.044-.033-.067l-.067.067zm-2.182 0c0 .088.033.132.1.132a.39.39 0 0 0 .165-.05.558.558 0 0 0 .133-.082l-.398 0zm3.265-.05c-.088.022-.132.1-.132.232l.132 0 0-.232zm1.868.182l.132 0-.132-.132 0 .132zm3.083-.182c-.067 0-.1.039-.1.116 0 .077.033.116.1.116.044 0 .066-.039.066-.116 0-.077-.022-.116-.066-.116zm-5.967.116c.022-.044.005-.066-.05-.066-.055 0-.072.022-.05.066 0 .044.017.066.05.066.033 0 .05-.022.05-.066zm3.867-.867l.166 0 0-.266-.166.266zm17.074 18.266c-.051 0-.147.006-.287.02-.14.012-.236.019-.287.019 0 .026-.026.065-.077.118-.05.052-.089.079-.115.079l-.841 0-.154.354c0-.42-.197-.682-.593-.787a4.164 4.164 0 0 0-1.052-.157c-.102 0-.198.006-.287.02-.09.012-.185.071-.287.176l0-1.18-.077-.079c-.05-.052-.076-.091-.076-.118-.051 0-.14-.032-.268-.098l-.421-.216a6.217 6.217 0 0 1-.421-.236 1.626 1.626 0 0 1-.23-.158.418.418 0 0 1-.268-.413.497.497 0 0 0-.267-.452c-.128.026-.192.092-.192.197 0 .104.013.222.038.354.026.13.032.249.02.354-.013.105-.083.157-.21.157-.077 0-.243-.04-.498-.118-.256-.079-.383-.184-.383-.315l0-.078a.345.345 0 0 1 .23-.197 2.893 2.893 0 0 0-.25-.216c-.114-.092-.21-.138-.286-.138-.153 0-.249.04-.287.118a.85.85 0 0 0-.077.236 1.589 1.589 0 0 1-.057.236c-.026.079-.077.118-.153.118a.785.785 0 0 1-.326-.079.477.477 0 0 1-.248-.275c.127-.026.191-.105.191-.236l0-.275c0-.341-.102-.63-.306-.866l-.612-.708c-.026 0-.039-.013-.039-.04-.025-.026-.038-.065-.038-.117.28 0 .472-.125.574-.374a4.38 4.38 0 0 0 .23-.728l0-2.045c0-.263.057-.499.172-.708.115-.21.172-.433.172-.67 0-.025-.006-.045-.019-.058-.013-.013-.02-.033-.02-.06l0-.078c0-.026-.05-.111-.152-.255-.102-.145-.153-.23-.153-.256l-.039-.04 0-.078.039-.04a5.87 5.87 0 0 0 .306-.806c.102-.328.23-.597.383-.806 0-.027.012-.053.038-.08 0-.025.006-.038.019-.038.013 0 .02-.014.02-.04.33-.21.56-.459.688-.747.127-.289.255-.616.383-.984.025.105.076.164.153.177.076.014.14.02.191.02l.153 0-.42-.826 1.798-.472c0-.393.083-.662.249-.806.165-.145.363-.243.593-.295.23-.053.472-.105.727-.158.255-.052.472-.197.65-.433l1.493 0 0-.55-.191.04c-.026 0-.077-.027-.153-.08a1.144 1.144 0 0 1-.154-.118l.154-.157 1.683 0 .192-.354c-.051.393-.051.721 0 .983.05.263.115.512.191.748.077.236.147.465.21.688.064.223.096.492.096.807l0 .275-1.186 1.062-.077.04c-.127 0-.191-.066-.191-.197 0-.131-.102-.197-.306-.197-.306 0-.472.085-.498.256a4.6 4.6 0 0 0-.038.649c-.179 0-.312.033-.402.098a.68.68 0 0 0-.21.256 8.827 8.827 0 0 1-.172.334.998.998 0 0 1-.326.335l-.459.118c-.025.026-.102.15-.23.373a9.378 9.378 0 0 0-.267.492c-.077.157-.18.25-.307.275-.127.027-.248.053-.363.08a1.2 1.2 0 0 0-.287.097c-.077.04-.115.138-.115.295 0 .158.032.315.096.473.063.157.095.34.095.55 0 .42-.057.695-.172.826-.115.131-.287.315-.517.551l0 .118c0 .42.032.721.096.905a.974.974 0 0 0 .249.413c.102.092.217.177.344.256.128.078.243.21.345.393a6.9 6.9 0 0 1 .23.826c.076.341.229.538.459.59.408.131.822.275 1.243.433.421.157.849.301 1.282.433.638.183 1.34.288 2.105.314.766.026 1.48.04 2.143.04.332 0 .6-.027.804-.08.204-.052.37-.137.497-.255a1.8 1.8 0 0 0 .345-.452c.102-.184.217-.394.344-.63.179.289.281.42.306.394.026-.026.14-.04.345-.04a4.93 4.93 0 0 1 .172-1.2c.064-.222.166-.412.306-.57a.708.708 0 0 1 .555-.236c0 .21.051.335.153.374.102.04.217.059.345.059 0-.341.012-.557.038-.65.025-.09-.013-.281-.115-.57l.077 0c.28 0 .484.066.612.197.128.131.223.276.287.433.064.157.121.301.172.433.051.13.14.196.268.196l.077-.039c.05-.289.095-.525.134-.708.038-.184.057-.407.057-.669a.566.566 0 0 0-.115-.374 4.493 4.493 0 0 0-.23-.255 4.493 4.493 0 0 1-.229-.256.505.505 0 0 1-.115-.334c0-.105.064-.276.191-.512a1.41 1.41 0 0 0 .192-.668c0-.289-.064-.512-.192-.67a8.661 8.661 0 0 1-.535-.786c-.077.053-.185.02-.326-.098a6.395 6.395 0 0 1-.459-.433c-.166-.17-.338-.34-.516-.511a1.34 1.34 0 0 0-.536-.335 9.589 9.589 0 0 0-.708-.098c-.345-.04-.708-.098-1.09-.177a5.924 5.924 0 0 1-1.015-.295c-.293-.118-.44-.269-.44-.453l0-1.416c0-.052-.051-.118-.153-.196a2.253 2.253 0 0 1-.23-.197l-.076.079c-.026.026-.051.039-.077.039-.025 0-.038.013-.038.04a.702.702 0 0 1-.077.196c-.05.105-.063.184-.038.236 0 .026.051.105.153.236.102.131.153.223.153.275 0 .027-.038.105-.115.236a7.31 7.31 0 0 1-.191.315l-.153.157a.573.573 0 0 0 0-.295c-.026-.118-.102-.19-.23-.216 0 .079-.025.19-.076.334a.908.908 0 0 1-.192.335c-.153-.079-.28-.282-.382-.61a5.374 5.374 0 0 1-.21-1.042 16.13 16.13 0 0 1-.077-1.043c-.013-.328-.02-.518-.02-.57.409 0 .658-.053.747-.158.09-.104.236-.354.44-.747.102.053.153.144.153.275a1.2 1.2 0 0 1-.096.492 1.107 1.107 0 0 0-.095.453c0 .104.019.196.057.275.038.079.134.144.287.197a.803.803 0 0 0 .364-.413c.063-.17.16-.322.287-.453l.172.295a.387.387 0 0 1 .057.197c0 .065-.006.131-.019.197a1.642 1.642 0 0 0-.019.295c.204 0 .344-.007.421-.02.077-.013.293-.02.65-.02 0-.183-.019-.38-.057-.59-.038-.21-.198-.315-.478-.315l0-.039c.076 0 .166-.013.268-.04.076 0 .146-.006.21-.019a.864.864 0 0 1 .172-.02l.192 0c.025.027.089.17.191.433.102.262.242.394.421.394.128 0 .21-.08.249-.236.038-.158.083-.276.134-.354l.115-.04c.204 0 .37.085.497.256.128.17.217.334.268.492l.497-.512a.995.995 0 0 1 .421.57c.077.25.217.4.421.453.179.079.428.177.747.295.319.118.637.269.956.452.32.184.6.387.842.61.243.223.364.479.364.767l0 2.832.115 0 1.071-1.022c-.127-.105-.274-.295-.44-.57-.166-.276-.249-.48-.249-.61l0-.118a2.79 2.79 0 0 1 .096-.177c.038-.066.07-.125.096-.177l.076-.04c.077 0 .147.06.21.177.065.118.128.256.192.413.064.158.109.308.134.453.026.144.038.23.038.255 0 .027.013.04.039.04l.076 0c.128 0 .204-.066.23-.197.025-.131.038-.262.038-.393l.497 0c.103.524.211.963.326 1.317.115.354.172.768.172 1.24 0 .288-.013.517-.038.688-.026.17-.07.321-.134.452a4.117 4.117 0 0 1-.249.433 10.41 10.41 0 0 1-.42.59.46.46 0 0 0 .324.236c.14.026.21.118.21.276 0 .157-.076.249-.229.275-.153.026-.325.059-.516.098a1.14 1.14 0 0 0-.517.256c-.153.131-.23.367-.23.708 0 .105.032.17.096.197.064.026.14.046.23.059a.963.963 0 0 1 .23.059c.063.026.095.091.095.196 0 .027-.013.053-.038.079-.255.079-.44.131-.555.157-.115.027-.217.04-.306.04-.09 0-.185-.007-.287-.02a4.392 4.392 0 0 0-.498-.02c0 .08.02.276.057.59.039.315.058.525.058.63 0 .026-.032.085-.096.177-.064.092-.095.15-.095.177-.026.026-.052.111-.077.256a1.284 1.284 0 0 1-.077.295c0-.132-.05-.302-.153-.512-.102-.21-.217-.34-.344-.393-.153-.053-.249-.033-.287.059a.759.759 0 0 0-.057.295.59.59 0 0 0 .19.452.547.547 0 0 1 .192.413c0 .184-.05.328-.153.433a1.32 1.32 0 0 1-.344.256 3.356 3.356 0 0 0-.364.216.505.505 0 0 0-.21.354l-.345-.708 0 1.101a.332.332 0 0 0-.153.04.66.66 0 0 1-.191.079l-.268 0 0-1.063-.268 0c0 .08-.038.21-.115.394a6.16 6.16 0 0 1-.287.59c-.115.21-.236.393-.363.55-.128.158-.255.237-.383.237-.179 0-.3-.066-.364-.197a2.591 2.591 0 0 1-.172-.511l-.038 0c-.23 0-.396.039-.498.118-.102.078-.191.17-.267.275a7.387 7.387 0 0 0-.23.334 1.48 1.48 0 0 1-.306.335l-.039 0c-.127 0-.204-.092-.23-.276-.025-.183-.057-.38-.095-.59a2.275 2.275 0 0 0-.191-.59c-.09-.183-.262-.275-.517-.275 0 .105.013.249.038.432.026.184.045.387.058.61.013.223.006.44-.02.65-.025.21-.089.393-.19.55-.103 0-.154-.052-.154-.157 0-.053.02-.151.058-.295.038-.145.07-.243.095-.295l0-.118a16.846 16.846 0 0 1-.191-.65c-.077-.275-.14-.413-.191-.413l-.115 0c-.026 0-.172.138-.44.414l-.632.649a2.152 2.152 0 0 1-.23.432c-.152.289-.254.433-.305.433-.154 0-.25-.059-.287-.177a13.223 13.223 0 0 1-.115-.374.835.835 0 0 0-.249-.373c-.128-.118-.37-.177-.727-.177zm4.992-.565c-.066 0-.099.056-.099.166 0 .11.033.166.1.166.088 0 .132-.056.132-.166 0-.11-.044-.166-.133-.166zm-4.768-1.315c-.22 0-.348.089-.38.266a2.79 2.79 0 0 0-.05.53l0 .166c.22 0 .348-.122.38-.365.034-.243.05-.442.05-.597zm1.285.8c0 .04.036.07.108.09.072.02.108.05.108.091l.216 0c.469 0 .847-.106 1.136-.318.288-.212.432-.44.432-.682a5.65 5.65 0 0 0-1.297.167c-.469.11-.703.318-.703.62l0 .031zm-3.483-.17l.132-.132-.132-.133-.067-.033c-.022 0-.033.005-.033.016 0 .011-.01.017-.033.017l-.033 0 .166.265zm-3.083-1.066l.132 0-.132-.166 0 .166zm15.033-2.199c-.044 0-.066.039-.066.116 0 .077.022.116.066.116.088 0 .132-.039.132-.116 0-.077-.044-.116-.132-.116zm-1.199.215l.464 0c-.044-.11-.1-.17-.166-.182a1.042 1.042 0 0 0-.165-.016c-.023 0-.034.005-.034.016 0 .011-.01.017-.033.017l-.066 0 0 .165zm1.133-3.182c0 .022.01.044.033.066a.386.386 0 0 0 .066.1c.044.044.077.066.1.066l0-.166c-.023 0-.045-.022-.067-.066-.022-.044-.055-.066-.1-.066 0 0-.01.022-.032.066zm-.967-.85l.132-.133-.132 0 0 .132zm.066-1.398c-.022.022-.044.088-.066.198a.974.974 0 0 1-.067.232l-.033.232c.11 0 .194-.071.249-.215a1.01 1.01 0 0 0 .083-.315c0-.088-.056-.132-.166-.132zm.017.182c-.089 0-.133.05-.133.149 0 .1.044.15.133.15.066 0 .099-.05.099-.15 0-.1-.033-.15-.1-.15zm1 0c-.089 0-.133.05-.133.149 0 .1.044.15.133.15.066 0 .099-.05.099-.15 0-.1-.033-.15-.1-.15zm1.9.215l.166 0 0-.132-.166 0 0 .132zm-3.934-1.215c-.066 0-.099.05-.099.149 0 .1.033.15.1.15.088 0 .132-.05.132-.15 0-.1-.044-.15-.133-.15zm1.967.215l.1 0 0-.132-.1 0 0 .132zm-18.95-1.137c-.044 0-.066.028-.066.083 0 .055.022.072.066.05.044 0 .066-.017.066-.05 0-.033-.022-.06-.066-.083zm17.917.154l.166 0 0-.166-.166 0 0 .166zM258 301.455c0 .363.094.545.281.545l.125 0c.146-.303.281-.621.406-.955.126-.333.188-.681.188-1.045-.042 0-.115.076-.219.227a16.4 16.4 0 0 0-.328.5c-.114.182-.219.349-.312.5-.094.152-.141.228-.141.228zm17.5-1.104c-.088 0-.133.05-.133.149 0 .1.045.15.133.15.088 0 .133-.05.133-.15 0-.1-.045-.15-.133-.15zm0-.984c-.088 0-.133.045-.133.133 0 .088.045.133.133.133.088 0 .133-.045.133-.133 0-.088-.045-.133-.133-.133zm-7.116-.635l.232 0a.75.75 0 0 0-.05-.265.357.357 0 0 0-.182-.199l0 .464zm-.983-1.315c0 .022.022.066.066.133.044.066.088.121.132.165l0-.43-.198 0 0 .132zm.05-.85l.099-.133-.1 0 0 .132zm-4 .231l.099 0 0-.596-.1 0 0 .596zm-.084-.149l.266 0a.441.441 0 0 0-.05-.199c-.033-.066-.083-.1-.15-.1l-.066 0 0 .3zm28.124 16.25c-.051 0-.147.006-.287.02-.14.012-.236.019-.287.019 0 .026-.026.065-.077.118-.05.052-.089.079-.115.079l-.841 0-.154.354c0-.42-.197-.682-.593-.787a4.164 4.164 0 0 0-1.052-.157c-.102 0-.198.006-.287.02-.09.012-.185.071-.287.176l0-1.18-.077-.079c-.05-.052-.076-.091-.076-.118-.051 0-.14-.032-.268-.098l-.421-.216a6.217 6.217 0 0 1-.421-.236 1.626 1.626 0 0 1-.23-.158.418.418 0 0 1-.268-.413.497.497 0 0 0-.267-.452c-.128.026-.192.092-.192.197 0 .104.013.222.038.354.026.13.032.249.02.354-.013.105-.083.157-.21.157-.077 0-.243-.04-.498-.118-.256-.079-.383-.184-.383-.315l0-.078a.345.345 0 0 1 .23-.197 2.893 2.893 0 0 0-.25-.216c-.114-.092-.21-.138-.286-.138-.153 0-.249.04-.287.118a.85.85 0 0 0-.077.236 1.589 1.589 0 0 1-.057.236c-.026.079-.077.118-.153.118a.785.785 0 0 1-.326-.079.477.477 0 0 1-.248-.275c.127-.026.191-.105.191-.236l0-.275c0-.341-.102-.63-.306-.866l-.612-.708c-.026 0-.039-.013-.039-.04-.025-.026-.038-.065-.038-.117.28 0 .472-.125.574-.374a4.38 4.38 0 0 0 .23-.728l0-2.045c0-.263.057-.499.172-.708.115-.21.172-.433.172-.67 0-.025-.006-.045-.019-.058-.013-.013-.02-.033-.02-.06l0-.078c0-.026-.05-.111-.152-.255-.102-.145-.153-.23-.153-.256l-.039-.04 0-.078.039-.04a5.87 5.87 0 0 0 .306-.806c.102-.328.23-.597.383-.806 0-.027.012-.053.038-.08 0-.025.006-.038.019-.038.013 0 .02-.014.02-.04.33-.21.56-.459.688-.747.127-.289.255-.616.383-.984.025.105.076.164.153.177.076.014.14.02.191.02l.153 0-.42-.826 1.798-.472c0-.393.083-.662.249-.806.165-.145.363-.243.593-.295.23-.053.472-.105.727-.158.255-.052.472-.197.65-.433l1.493 0 0-.55-.191.04c-.026 0-.077-.027-.153-.08a1.144 1.144 0 0 1-.154-.118l.154-.157 1.683 0 .192-.354c-.051.393-.051.721 0 .983.05.263.115.512.191.748.077.236.147.465.21.688.064.223.096.492.096.807l0 .275-1.186 1.062-.077.04c-.127 0-.191-.066-.191-.197 0-.131-.102-.197-.306-.197-.306 0-.472.085-.498.256a4.6 4.6 0 0 0-.038.649c-.179 0-.312.033-.402.098a.68.68 0 0 0-.21.256 8.827 8.827 0 0 1-.172.334.998.998 0 0 1-.326.335l-.459.118c-.025.026-.102.15-.23.373a9.378 9.378 0 0 0-.267.492c-.077.157-.18.25-.307.275-.127.027-.248.053-.363.08a1.2 1.2 0 0 0-.287.097c-.077.04-.115.138-.115.295 0 .158.032.315.096.473.063.157.095.34.095.55 0 .42-.057.695-.172.826-.115.131-.287.315-.517.551l0 .118c0 .42.032.721.096.905a.974.974 0 0 0 .249.413c.102.092.217.177.344.256.128.078.243.21.345.393a6.9 6.9 0 0 1 .23.826c.076.341.229.538.459.59.408.131.822.275 1.243.433.421.157.849.301 1.282.433.638.183 1.34.288 2.105.314.766.026 1.48.04 2.143.04.332 0 .6-.027.804-.08.204-.052.37-.137.497-.255a1.8 1.8 0 0 0 .345-.452c.102-.184.217-.394.344-.63.179.289.281.42.306.394.026-.026.14-.04.345-.04a4.93 4.93 0 0 1 .172-1.2c.064-.222.166-.412.306-.57a.708.708 0 0 1 .555-.236c0 .21.051.335.153.374.102.04.217.059.345.059 0-.341.012-.557.038-.65.025-.09-.013-.281-.115-.57l.077 0c.28 0 .484.066.612.197.128.131.223.276.287.433.064.157.121.301.172.433.051.13.14.196.268.196l.077-.039c.05-.289.095-.525.134-.708.038-.184.057-.407.057-.669a.566.566 0 0 0-.115-.374 4.493 4.493 0 0 0-.23-.255 4.493 4.493 0 0 1-.229-.256.505.505 0 0 1-.115-.334c0-.105.064-.276.191-.512a1.41 1.41 0 0 0 .192-.668c0-.289-.064-.512-.192-.67a8.661 8.661 0 0 1-.535-.786c-.077.053-.185.02-.326-.098a6.395 6.395 0 0 1-.459-.433c-.166-.17-.338-.34-.516-.511a1.34 1.34 0 0 0-.536-.335 9.589 9.589 0 0 0-.708-.098c-.345-.04-.708-.098-1.09-.177a5.924 5.924 0 0 1-1.015-.295c-.293-.118-.44-.269-.44-.453l0-1.416c0-.052-.051-.118-.153-.196a2.253 2.253 0 0 1-.23-.197l-.076.079c-.026.026-.051.039-.077.039-.025 0-.038.013-.038.04a.702.702 0 0 1-.077.196c-.05.105-.063.184-.038.236 0 .026.051.105.153.236.102.131.153.223.153.275 0 .027-.038.105-.115.236a7.31 7.31 0 0 1-.191.315l-.153.157a.573.573 0 0 0 0-.295c-.026-.118-.102-.19-.23-.216 0 .079-.025.19-.076.334a.908.908 0 0 1-.192.335c-.153-.079-.28-.282-.382-.61a5.374 5.374 0 0 1-.21-1.042 16.13 16.13 0 0 1-.077-1.043c-.013-.328-.02-.518-.02-.57.409 0 .658-.053.747-.158.09-.104.236-.354.44-.747.102.053.153.144.153.275a1.2 1.2 0 0 1-.096.492 1.107 1.107 0 0 0-.095.453c0 .104.019.196.057.275.038.079.134.144.287.197a.803.803 0 0 0 .364-.413c.063-.17.16-.322.287-.453l.172.295a.387.387 0 0 1 .057.197c0 .065-.006.131-.019.197a1.642 1.642 0 0 0-.019.295c.204 0 .344-.007.421-.02.077-.013.293-.02.65-.02 0-.183-.019-.38-.057-.59-.038-.21-.198-.315-.478-.315l0-.039c.076 0 .166-.013.268-.04.076 0 .146-.006.21-.019a.864.864 0 0 1 .172-.02l.192 0c.025.027.089.17.191.433.102.262.242.394.421.394.128 0 .21-.08.249-.236.038-.158.083-.276.134-.354l.115-.04c.204 0 .37.085.497.256.128.17.217.334.268.492l.497-.512a.995.995 0 0 1 .421.57c.077.25.217.4.421.453.179.079.428.177.747.295.319.118.637.269.956.452.32.184.6.387.842.61.243.223.364.479.364.767l0 2.832.115 0 1.071-1.022c-.127-.105-.274-.295-.44-.57-.166-.276-.249-.48-.249-.61l0-.118a2.79 2.79 0 0 1 .096-.177c.038-.066.07-.125.096-.177l.076-.04c.077 0 .147.06.21.177.065.118.128.256.192.413.064.158.109.308.134.453.026.144.038.23.038.255 0 .027.013.04.039.04l.076 0c.128 0 .204-.066.23-.197.025-.131.038-.262.038-.393l.497 0c.103.524.211.963.326 1.317.115.354.172.768.172 1.24 0 .288-.013.517-.038.688-.026.17-.07.321-.134.452a4.117 4.117 0 0 1-.249.433 10.41 10.41 0 0 1-.42.59.46.46 0 0 0 .324.236c.14.026.21.118.21.276 0 .157-.076.249-.229.275-.153.026-.325.059-.516.098a1.14 1.14 0 0 0-.517.256c-.153.131-.23.367-.23.708 0 .105.032.17.096.197.064.026.14.046.23.059a.963.963 0 0 1 .23.059c.063.026.095.091.095.196 0 .027-.013.053-.038.079-.255.079-.44.131-.555.157-.115.027-.217.04-.306.04-.09 0-.185-.007-.287-.02a4.392 4.392 0 0 0-.498-.02c0 .08.02.276.057.59.039.315.058.525.058.63 0 .026-.032.085-.096.177-.064.092-.095.15-.095.177-.026.026-.052.111-.077.256a1.284 1.284 0 0 1-.077.295c0-.132-.05-.302-.153-.512-.102-.21-.217-.34-.344-.393-.153-.053-.249-.033-.287.059a.759.759 0 0 0-.057.295.59.59 0 0 0 .19.452.547.547 0 0 1 .192.413c0 .184-.05.328-.153.433a1.32 1.32 0 0 1-.344.256 3.356 3.356 0 0 0-.364.216.505.505 0 0 0-.21.354l-.345-.708 0 1.101a.332.332 0 0 0-.153.04.66.66 0 0 1-.191.079l-.268 0 0-1.063-.268 0c0 .08-.038.21-.115.394a6.16 6.16 0 0 1-.287.59c-.115.21-.236.393-.363.55-.128.158-.255.237-.383.237-.179 0-.3-.066-.364-.197a2.591 2.591 0 0 1-.172-.511l-.038 0c-.23 0-.396.039-.498.118-.102.078-.191.17-.267.275a7.387 7.387 0 0 0-.23.334 1.48 1.48 0 0 1-.306.335l-.039 0c-.127 0-.204-.092-.23-.276-.025-.183-.057-.38-.095-.59a2.275 2.275 0 0 0-.191-.59c-.09-.183-.262-.275-.517-.275 0 .105.013.249.038.432.026.184.045.387.058.61.013.223.006.44-.02.65-.025.21-.089.393-.19.55-.103 0-.154-.052-.154-.157 0-.053.02-.151.058-.295.038-.145.07-.243.095-.295l0-.118a16.846 16.846 0 0 1-.191-.65c-.077-.275-.14-.413-.191-.413l-.115 0c-.026 0-.172.138-.44.414l-.632.649a2.152 2.152 0 0 1-.23.432c-.152.289-.254.433-.305.433-.154 0-.25-.059-.287-.177a13.223 13.223 0 0 1-.115-.374.835.835 0 0 0-.249-.373c-.128-.118-.37-.177-.727-.177zm4.992-.565c-.066 0-.099.056-.099.166 0 .11.033.166.1.166.088 0 .132-.056.132-.166 0-.11-.044-.166-.133-.166zm-4.768-1.315c-.22 0-.348.089-.38.266a2.79 2.79 0 0 0-.05.53l0 .166c.22 0 .348-.122.38-.365.034-.243.05-.442.05-.597zm1.285.8c0 .04.036.07.108.09.072.02.108.05.108.091l.216 0c.469 0 .847-.106 1.136-.318.288-.212.432-.44.432-.682a5.65 5.65 0 0 0-1.297.167c-.469.11-.703.318-.703.62l0 .031zm-3.483-.17l.132-.132-.132-.133-.067-.033c-.022 0-.033.005-.033.016 0 .011-.01.017-.033.017l-.033 0 .166.265zm-3.083-1.066l.132 0-.132-.166 0 .166zm15.033-2.199c-.044 0-.066.039-.066.116 0 .077.022.116.066.116.088 0 .132-.039.132-.116 0-.077-.044-.116-.132-.116zm-.199.215l.464 0c-.044-.11-.1-.17-.166-.182a1.042 1.042 0 0 0-.165-.016c-.023 0-.034.005-.034.016 0 .011-.01.017-.033.017l-.066 0 0 .165zm.133-3.182c0 .022.01.044.033.066a.386.386 0 0 0 .066.1c.044.044.077.066.1.066l0-.166c-.023 0-.045-.022-.067-.066-.022-.044-.055-.066-.1-.066 0 0-.01.022-.032.066zm-.967-.85l.132-.133-.132 0 0 .132zm.066-1.398c-.022.022-.044.088-.066.198a.974.974 0 0 1-.067.232l-.033.232c.11 0 .194-.071.249-.215a1.01 1.01 0 0 0 .083-.315c0-.088-.056-.132-.166-.132zm.017.182c-.089 0-.133.05-.133.149 0 .1.044.15.133.15.066 0 .099-.05.099-.15 0-.1-.033-.15-.1-.15zm1 0c-.089 0-.133.05-.133.149 0 .1.044.15.133.15.066 0 .099-.05.099-.15 0-.1-.033-.15-.1-.15zm1.9.215l.166 0 0-.132-.166 0 0 .132zm-2.934-1.215c-.066 0-.099.05-.099.149 0 .1.033.15.1.15.088 0 .132-.05.132-.15 0-.1-.044-.15-.133-.15zm.967.215l.1 0 0-.132-.1 0 0 .132zm-17.95-1.137c-.044 0-.066.028-.066.083 0 .055.022.072.066.05.044 0 .066-.017.066-.05 0-.033-.022-.06-.066-.083zm16.917.154l.166 0 0-.166-.166 0 0 .166zM284 301.455c0 .363.094.545.281.545l.125 0c.146-.303.281-.621.406-.955.126-.333.188-.681.188-1.045-.042 0-.115.076-.219.227a16.4 16.4 0 0 0-.328.5c-.114.182-.219.349-.312.5-.094.152-.141.228-.141.228zm17.5-1.104c-.088 0-.133.05-.133.149 0 .1.045.15.133.15.088 0 .133-.05.133-.15 0-.1-.045-.15-.133-.15zm0-.984c-.088 0-.133.045-.133.133 0 .088.045.133.133.133.088 0 .133-.045.133-.133 0-.088-.045-.133-.133-.133zm-8.116-.635l.232 0a.75.75 0 0 0-.05-.265.357.357 0 0 0-.182-.199l0 .464zm-.983-1.315c0 .022.022.066.066.133.044.066.088.121.132.165l0-.43-.198 0 0 .132zm.05-.85l.099-.133-.1 0 0 .132zm-4 .231l.099 0 0-.596-.1 0 0 .596zm.916-.149l.266 0a.441.441 0 0 0-.05-.199c-.033-.066-.083-.1-.15-.1l-.066 0 0 .3zm20.787-4.642c.076-.14.187-.211.334-.211a.654.654 0 0 0 .42-.153l.037-.077c0-.153-.095-.345-.286-.575-.19-.23-.362-.345-.515-.345-.127 0-.216.044-.267.134-.05.09-.152.134-.305.134a.312.312 0 0 1-.095-.02.312.312 0 0 0-.096-.018l.42-.384c-.153-.204-.324-.338-.515-.402-.19-.064-.286-.262-.286-.595.254 0 .483-.076.687-.23a4.37 4.37 0 0 0 .572-.517 5.22 5.22 0 0 1 .553-.518c.19-.153.426-.23.705-.23-.025.026-.038.051-.038.077l0 .115c0 .05-.032.121-.095.21-.064.09-.095.16-.095.211 0 .026.025.058.076.096.05.039.089.058.114.058.026 0 .115-.026.267-.077.153-.05.255-.077.305-.077l.077 0c.254 0 .521.307.8.92.28.614.535 1.31.764 2.09.228.78.425 1.528.59 2.244.166.715.249 1.175.249 1.38l0 3.26c-.051.025-.096.082-.134.172a.584.584 0 0 0-.057.21c0 .537.076 1.08.229 1.63.152.55.33 1.08.534 1.591l.19.192c.23.18.414.39.554.633.14.243.267.473.381.69.114.217.229.403.343.556.115.153.248.23.4.23.306 0 .541-.077.706-.23.166-.153.318-.326.458-.518.14-.191.293-.37.458-.536.165-.167.413-.25.744-.25l.305 0c-.204.077-.343.147-.42.211-.076.064-.114.186-.114.364l1.487 0c.102 0 .178-.102.23-.306.05-.205.095-.428.133-.671.038-.243.095-.467.171-.671.077-.205.216-.307.42-.307l0 .23a1.73 1.73 0 0 1-.134.21c-.063.09-.082.148-.057.173.026.154.083.256.172.307a.565.565 0 0 0 .286.077c.102 0 .21-.02.324-.058.115-.038.223-.057.324-.057 0-.256-.076-.41-.229-.46-.152-.051-.267-.18-.343-.384 0-.025.007-.147.02-.364.012-.217.006-.351-.02-.403a1.06 1.06 0 0 0-.076-.287.92.92 0 0 0-.115-.25l.191 0a.65.65 0 0 1 .19.077l.23.115.076 0c.127 0 .26-.121.4-.364a3.84 3.84 0 0 1 .248-.403.644.644 0 0 1-.495-.134.566.566 0 0 1-.23-.48l1.107 0c0 .052.019.154.057.308.038.153.083.255.134.306l.19 0c.153-.51.452-.99.897-1.437.445-.448.934-.671 1.468-.671l.115 0 1.525.383c.026.026.07.026.134 0a.466.466 0 0 1 .171-.038c0-.333-.089-.55-.267-.652a2.874 2.874 0 0 0-.572-.25 3.823 3.823 0 0 1-.572-.23c-.178-.089-.267-.287-.267-.594a.418.418 0 0 0 .19.039l.23 0c.025.025.114.095.267.21.152.115.241.173.267.173.127.026.368.006.724-.058.356-.063.585-.095.687-.095-.254-.767-.362-1.247-.324-1.438.038-.192.152-.275.343-.25.19.026.42.07.687.135.267.064.502-.02.705-.25.051 0 .102.039.153.115.05.077.076.154.076.23 0 .026-.044.116-.133.269a4.129 4.129 0 0 0-.267.575c-.09.23-.178.467-.267.71a1.884 1.884 0 0 0-.134.632c0 .026.007.09.02.192.012.102.018.166.018.192.051-.103.127-.237.23-.403.1-.166.215-.288.342-.364-.076.255-.063.421.039.498a.693.693 0 0 0 .362.134l.42.039c.14.012.235.07.286.172.025.051.07.154.133.307.064.153.134.294.21.422l.305.537-2.899-.307-.19.307c.101 0 .28.012.533.038.255.025.515.07.782.134.267.064.509.147.725.25.216.102.35.23.4.383l-2.44-.154c-.051 0-.026.039.076.115a31.17 31.17 0 0 0 .763.556c.127.09.19.147.19.173 0 .102-.05.179-.152.23l-.687.345c-.102.051-.152.128-.152.23l-.992 0c0 .026.044.109.133.25.09.14.108.236.058.287-.077.128-.14.198-.191.21a1.745 1.745 0 0 0-.172.058.989.989 0 0 0-.267.211c-.114.115-.273.339-.477.671a.841.841 0 0 1-.19.211c-.102.09-.178.147-.23.173l0-.575-.342 0c0 .255.031.485.095.69.064.204.095.434.095.69 0 .204-.095.415-.286.633a4.08 4.08 0 0 1-.686.613c-.267.192-.54.358-.82.499a4.21 4.21 0 0 1-.687.287c-.203-.383-.458-.575-.763-.575l-.19 0c.076.511.387.927.934 1.246.547.32 1.163.594 1.85.825.686.23 1.373.434 2.06.613.686.179 1.22.37 1.602.575.228.128.381.25.457.364.077.116.153.224.23.326a.758.758 0 0 0 .266.23c.102.052.293.064.572.039 0 .025.007.057.02.096a.33.33 0 0 1 .018.096c0 .332-.203.46-.61.383.053.028.096.085.134.172a.59.59 0 0 1 .057.211l-.076.077c-.051.051-.09.077-.115.077l-.076.038-.076 0c-.026 0-.039-.013-.039-.038l-.953-.92 0-.192.19-.384-.533 0c0 .41.146.818.438 1.227.293.41.655.678 1.087.806l-.61 1.265c-.534.204-.896.3-1.087.287-.19-.012-.305-.102-.343-.268a3.65 3.65 0 0 1-.077-.613c-.012-.243-.108-.492-.286-.748 0 .128.007.281.02.46.012.179-.121.268-.401.268l-.076 0a1.82 1.82 0 0 0 .095-.287c.038-.14.07-.237.095-.288l0-.191a33.42 33.42 0 0 0-.496-.307.87.87 0 0 0-.457-.115.911.911 0 0 0-.82.46 2.524 2.524 0 0 0-.363.92l-.076 0c-.178 0-.292-.083-.343-.25a14.84 14.84 0 0 1-.153-.536 1.495 1.495 0 0 0-.229-.498c-.101-.141-.267-.173-.496-.096a43.91 43.91 0 0 0-.267-.767c-.127-.358-.292-.6-.495-.729a2.468 2.468 0 0 1-.286.326c-.14.14-.293.288-.458.441a9.692 9.692 0 0 1-.458.403c-.14.115-.248.172-.324.172a1.13 1.13 0 0 0-.095-.249 4.234 4.234 0 0 0-.248-.46 7.188 7.188 0 0 0-.306-.46c-.101-.14-.203-.211-.305-.211-.178 0-.292.128-.343.383a2.5 2.5 0 0 1-.19.614 3.375 3.375 0 0 0-.268-.499c-.127-.204-.267-.306-.42-.306-.025 0-.05.013-.075.038a.882.882 0 0 1-.191.115.583.583 0 0 1-.23.077l-.152 0a.918.918 0 0 1-.057-.288 6.01 6.01 0 0 0-.057-.44 2.042 2.042 0 0 0-.114-.423c-.051-.127-.128-.191-.23-.191a.732.732 0 0 0-.362.096.732.732 0 0 1-.362.095.565.565 0 0 1-.286-.057c-.064-.038-.146-.147-.248-.326-.05.307-.19.46-.42.46l0-.25c0-.114.013-.184.039-.21l.19-.192.038-.076c-.025 0-.038-.013-.038-.039l0-.076a45.887 45.887 0 0 1-.496-.173 5.961 5.961 0 0 1-.457-.172c-.178-.128-.242-.243-.191-.346a.96.96 0 0 0 .076-.421l-.686 0c0 .05.006.127.019.23.012.102.019.217.019.345 0 .128-.013.236-.038.326-.026.09-.077.134-.153.134l-1.45 0a.295.295 0 0 0-.037.115.342.342 0 0 0-.039.153c.102.205.248.32.439.345.19.026.299.167.324.422 0 .102.007.307.02.614.012.306.018.511.018.613 0 .077.007.211.02.403.012.192.012.396 0 .613-.013.218-.051.41-.115.575-.064.167-.172.25-.324.25a2.76 2.76 0 0 1-.801-.115 2.76 2.76 0 0 0-.801-.115l-.076 0a2.83 2.83 0 0 0-.115.306 1.26 1.26 0 0 0-.076.307c-.026 0-.064.051-.115.154a.675.675 0 0 0-.076.191c0 .051.051.128.153.23.101.103.178.166.229.192l-.191 0c-.28 0-.528-.077-.744-.23a1.316 1.316 0 0 0-.782-.23l0-.92c.051.025.12.019.21-.02.089-.038.146-.083.172-.134.025-.076.006-.21-.058-.402-.063-.192-.095-.313-.095-.365l-.42 0a145.26 145.26 0 0 0-.095-.747c-.038-.294-.197-.441-.477-.441l0-1.687a17.573 17.573 0 0 0-.076-1.112c-.025-.256-.05-.499-.076-.729a5.255 5.255 0 0 1-.038-.46l0-.498c0-.588.101-1.164.305-1.726a5.036 5.036 0 0 0 .305-1.725c0-1.1-.134-2.192-.4-3.279a13.535 13.535 0 0 1-.401-3.24c0-.613.102-1.003.305-1.17.203-.165.369-.338.496-.517a.727.727 0 0 0-.076-.25.727.727 0 0 1-.077-.248.183.183 0 0 1-.133-.058.183.183 0 0 0-.134-.057.841.841 0 0 1-.19.21c-.102.09-.153.16-.153.211l0-1.763c.153 0 .26.063.324.191.064.128.07.268.02.42l.01-.017zm1.429 21.576l-.166 0 0-.166.166.166zm15.917-1.265c.088 0 .133.06.133.182 0 .122-.045.182-.133.182-.088 0-.133-.06-.133-.182 0-.122.045-.182.133-.182zm-4.1-1.95l.034 0c.022 0 .033-.006.033-.017 0-.011.01-.017.033-.017l.066.033.166.166.033.066c0 .023-.01.045-.033.067l-.497-.133.166-.166zm1.1-.034c-.088 0-.133.056-.133.166 0 .11.045.166.133.166.088 0 .133-.056.133-.166 0-.11-.045-.166-.133-.166zm1 0c-.088 0-.133.056-.133.166 0 .11.045.166.133.166.088 0 .133-.056.133-.166 0-.11-.045-.166-.133-.166zm-.199-.585l.398 0c0-.11-.05-.21-.15-.299a2.411 2.411 0 0 0-.248-.199l0 .498zm3.199-.328c-.044-.022-.066 0-.066.067 0 .066.022.099.066.099.044-.022.066-.05.066-.083 0-.033-.022-.06-.066-.083zm-15.083.162l.166 0 0-.166-.166 0 0 .166zm14-1l.166 0 0-.166-.166.166zm-.818-.249a.343.343 0 0 0-.198.332l.198 0 0-.332zm-7.016-.751l0-.166-.166 0 .166.166zm.834.166c.11-.022.166-.122.166-.299l0-.199-.166.498zm-6.248-1.083c.11 0 .232-.033.364-.1a.825.825 0 0 0 .298-.232l-.662 0 0 .332zm7.265-.083l.132 0 0-.166-.132 0 0 .166zm-1.2.066c.045.044.084.089.117.133.033.044.06.066.083.066.154 0 .248-.028.281-.083a.493.493 0 0 0 .05-.248.624.624 0 0 0-.05-.249c-.033-.077-.105-.116-.215-.116-.022 0-.044.011-.066.033-.022 0-.05.039-.083.116a.576.576 0 0 1-.116.182l0 .166zm1.2-.083l.132 0-.132-.132 0 .132zm-6.033.017l.198 0-.198-.166 0 .166zm8.623-1.058c0 .113.006.198.017.255.01.056.06.13.146.22l.57-.237c.162-.068.243-.226.243-.475l0-.271c0-.09-.054-.147-.163-.17l-.325.306 0-.238c0-.158.027-.26.081-.305.055-.045.082-.135.082-.271a.522.522 0 0 0-.049-.254c-.033-.057-.125-.085-.276-.085-.109 0-.19.062-.244.186a1.309 1.309 0 0 0-.098.441c-.01.17-.01.34 0 .509a6.4 6.4 0 0 1 .016.39zm-4.607.14c.11-.043.166-.154.166-.33l-.166 0 0 .33zm-.917-.236c-.044-.044-.066-.027-.066.05 0 .077.022.116.066.116.044-.022.066-.055.066-.1 0-.044-.022-.066-.066-.066zm0-.095c-.088 0-.133.056-.133.166 0 .11.045.166.133.166.088 0 .133-.056.133-.166 0-.11-.045-.166-.133-.166zm4.834-2.334a1.211 1.211 0 0 1-.1.125c-.043.05-.065.092-.065.125l0 1.75.165 0c.044-.067.11-.258.2-.575.088-.317.187-.542.297-.675a6.233 6.233 0 0 0-.149-.375 2.612 2.612 0 0 0-.182-.375l-.166 0zm-1.933.583l.198 0-.198-.166 0 .166zm3.768-.984c.044.11.154.166.331.166a.55.55 0 0 0 .215-.05c.078-.033.116-.105.116-.215l0-.066-.082-.083a.442.442 0 0 0-.116-.083l-.067-.033-.066.033a.822.822 0 0 0-.182.15.822.822 0 0 0-.15.181zm-.835-.182c0 .022.022.05.067.083.044.033.077.06.099.083 0 .022.011.033.033.033l.066 0 .067-.033-.166-.166-.066-.033c-.022 0-.033.006-.033.017 0 .01-.011.016-.034.016l-.033 0zm4.332.083c-.022.044-.072.066-.15.066a.246.246 0 0 1-.182-.066c-.022-.044.033-.066.166-.066.133 0 .188.022.166.066zM324 301.062c0 .157.078.352.235.586.157.235.3.352.432.352l.117 0a5.78 5.78 0 0 0 .765-.305c.3-.14.451-.382.451-.726a.147.147 0 0 0-.04-.094l-.195-.234a1.316 1.316 0 0 1-.196-.282l0-.234.078-.188a.562.562 0 0 1 .078-.14.147.147 0 0 0 .04-.094c-.053-.062-.15-.187-.294-.375-.144-.187-.242-.297-.295-.328l-.196.188 0 1.875-.196 0c-.026 0-.091-.032-.196-.094-.104-.063-.17-.094-.196-.094l-.196 0c-.026 0-.065.031-.118.094l-.078.094zm3.384-.413l.232 0c0-.155-.077-.254-.232-.298l0 .298zm-.315-.994c0 .072.022.181.066.327.045.145.1.297.166.454.066.158.138.291.216.4.077.11.149.164.215.164l.199 0 0-.164c0-.084-.011-.139-.033-.163a.593.593 0 0 0-.083-.182.511.511 0 0 1-.083-.218.109.109 0 0 0 .033-.073c0-.048.011-.085.033-.11a.57.57 0 0 1 .1-.145c0-.024.005-.054.016-.09a.754.754 0 0 0-.05-.473 1.851 1.851 0 0 0-.265-.346L327.5 299a.34.34 0 0 0-.331.218c-.067.146-.1.291-.1.437zm-14.884.08l.15.133a.813.813 0 0 0 .182.132c.044-.137.11-.28.198-.426a.828.828 0 0 0 .133-.427l0-.147a1.52 1.52 0 0 0-.365.28c-.154.146-.254.25-.298.308l-.033.06.033.087zm13.9-1.506c0 .133.034.252.1.357.066.104.1.243.1.414l.198 0c0-.152.028-.295.083-.429.056-.133.172-.228.348-.285a.734.734 0 0 0-.596-.286l-.067 0c-.022 0-.05.019-.082.057-.034.038-.061.057-.083.057l0 .115zm6.84-.54c0-.045-.082-.114-.246-.206-.164-.092-.246-.15-.246-.173.03-.023.06-.08.09-.172a.828.828 0 0 0 .044-.172 16.596 16.596 0 0 0-.963-.19 2.57 2.57 0 0 1-.47-.104c-.09-.034-.134-.08-.134-.138 0-.057.015-.178.045-.362l.761-.172c.09 0 .261.046.515.138.254.092.5.195.739.31.298.138.612.288.94.449 0 .252-.18.477-.537.672a12.33 12.33 0 0 1-.851.431c-.15-.023-.224-.126-.224-.31l.537 0zm-4.342-.189c.022-.044-.006-.066-.083-.066-.077 0-.105.022-.083.066.022.044.055.066.1.066.044 0 .066-.022.066-.066zm3-1c-.022.044-.05.066-.083.066-.033 0-.06-.022-.083-.066-.022-.044.006-.066.083-.066.077 0 .105.022.083.066zm-.718-.083c.044 0 .038.011-.017.033a.889.889 0 0 1-.215.05 3.043 3.043 0 0 0-.282.05 1.14 1.14 0 0 1-.216.033c-.044 0-.038-.011.017-.033a.889.889 0 0 1 .215-.05c.089-.011.183-.028.282-.05.1-.022.171-.033.216-.033zm-3.78-1.016l.365 0c.044.022.122.05.232.082.11.034.188.061.232.083-.022 0-.071.006-.149.017a1.37 1.37 0 0 1-.182.016c-.066 0-.155-.005-.265-.016-.11-.011-.188-.072-.232-.182zm6.332-.05c.066 0 .15.027.249.083.1.055.149.127.149.215l-.63 0c0-.044.022-.105.066-.182.045-.077.1-.116.166-.116zm-.834-1.033l0 .364-.166-.199.166-.165zm-3.017-1.05l0 .133c0 .022.011.033.033.033a.931.931 0 0 1-.016.182c-.011.055-.072.094-.182.116l0-.166c0-.176.055-.276.165-.298zm-19.132.315l.132 0 0-.166-.132 0 0 .166zm2.083-3.497c-.133 0-.21.071-.232.215-.023.144-.034.26-.034.348l0 .265c.067-.022.144-.055.232-.1.177-.087.266-.165.266-.231 0-.044-.017-.127-.05-.249a.577.577 0 0 0-.116-.248l-.066 0zm-2.183.315a.343.343 0 0 0 .332.198l0-.198-.332 0z"/>
    <path fill="#FF4B24" d="M352 303.5l1.388 0c.952 0 1.723.784 1.723 1.75 0 .966-.771 1.75-1.723 1.75l-.974 0a17.284 17.284 0 0 1-.414-3.5zm23.722 17.5c.227-.261.442-.52.646-.778l2.854 0a28.753 28.753 0 0 1-3.5.778zm-23.262-21.778l7.97 0c.928 0 1.681.784 1.681 1.75 0 .967-.753 1.75-1.681 1.75l-8.43 0a16.67 16.67 0 0 1 .46-3.5zm7.562-7.778c.742.123 1.311.856 1.311 1.741 0 .972-.686 1.76-1.532 1.76l-.412 0c.095-1.25.313-2.415.633-3.5zm-3.744 3.112l-1.556 0c.392-.653.834-1.301 1.327-1.945 0 .732.086 1.378.229 1.945zm32.804 16.722l-1.558 0c-.934 0-1.69-.784-1.69-1.75 0-.967.756-1.75 1.69-1.75l2.587 0a16.896 16.896 0 0 1-1.029 3.5zm-5.37 7.198a27.64 27.64 0 0 1-2.224.968l-4.6 0c1.904-2.663 2.525-5.126 1.863-7.388l7.454 0c.654 0 1.184.531 1.184 1.187l0 .78c-.975 1.506-2.2 2.99-3.677 4.453zm-7.293-6.517l.177 0c-.117.135-.192.193-.192.193.005-.065.01-.129.015-.193zM366 321a29.738 29.738 0 0 1-7.243-2.14 40.889 40.889 0 0 1-2.09-2.527l6.625 0c.335 1.569 1.238 3.125 2.708 4.667zm-13.611-13.611l5.394 0c.672 0 1.217.531 1.217 1.187l0 5.015c0 .655-.545 1.187-1.217 1.187l-1.771 0c-1.756-2.51-2.964-4.974-3.623-7.39zm36.944-8.556l-2.304 0c-.66 0-1.196-.533-1.196-1.191l0-5.03c1.556 2.106 2.723 4.18 3.5 6.221zm-22.98-15.555l.787 0a1.19 1.19 0 0 1 1.193 1.187l0 5.014a1.19 1.19 0 0 1-1.193 1.188l-6.973 0c1.27-3.159 3.587-5.575 6.185-7.39zm8.084 23.208c-1.434-1.372-3.345-2.161-4.737-2.553.527 1.287.741 2.276.753 3.067l-12.44 0a1.742 1.742 0 0 1-1.735-1.75c0-.966.776-1.75 1.735-1.75l15.197 0c.958 0 1.734.784 1.734 1.75 0 .483-.193.92-.507 1.236zm-4.16 1.292c-.298 1.64-1.563 2.288-2.135 3.5l-1.783 0c-.157-.754-.258-1.676-.258-2.803-.797.939-1.422 1.873-1.876 2.803l-2.381 0c-.926 0-1.677-.784-1.677-1.75 0-.967.75-1.75 1.677-1.75l8.434 0zm5.056 0l7.977 0c.964 0 1.746.783 1.746 1.75 0 .966-.782 1.75-1.746 1.75l-4.713 0a8.168 8.168 0 0 0-1.004-1.693c0 .746-.192 1.296-.435 1.693l-.891 0c.042-1.386-.327-2.542-.934-3.5zm-.833-16.334c.829 1.302 1.884 2.348 2.778 3.5l-13.469 0c-.938 0-1.698-.783-1.698-1.75 0-.966.76-1.75 1.698-1.75l10.691 0zm9.228 0c.546.215.939.816.939 1.523 0 .803-.506 1.469-1.167 1.589a35.82 35.82 0 0 0 .228-3.112zm-29.503 3.89l2.32 0c.923 2.604 2.9 3.437 2.9 3.437a18.274 18.274 0 0 1-.193-3.438l1.52 0c.955 0 1.728.784 1.728 1.75 0 .967-.773 1.75-1.727 1.75l-7.995 0c.347-1.178.83-2.345 1.447-3.5zm19.553-12.445c-.31 1.328-.443 2.482-.44 3.5l-1.735 0c-.947 0-1.714-.784-1.714-1.75 0-.967.767-1.75 1.714-1.75l2.175 0zm-.528 4.278c.084 1.399.43 2.526.917 3.5l-2.618 0c-.917 0-1.66-.784-1.66-1.75 0-.967.743-1.75 1.66-1.75l1.7 0zm4.683 8.166c.644.986 1.142 2.086 1.29 3.5l-1.881 0c-.895 0-1.62-.783-1.62-1.75 0-.966.725-1.75 1.62-1.75l.59 0zm5.188 0c.86.037 1.546.806 1.546 1.75 0 .967-.721 1.75-1.61 1.75l-.724 0c.312-.99.584-2.148.788-3.5zm1.157-4.666l-.778 0c.006-.255.009-.514.009-.778.263.26.52.519.769.778zm-20.611 21.389c-.458 1.173-.635 2.34-.53 3.5l-1.645 0c-.947 0-1.714-.784-1.714-1.75 0-.967.767-1.75 1.714-1.75l2.175 0zm3.11 0l1.218 0c-.087.596-.01 1.338.338 2.333 0 0-.973-.382-1.555-2.333zm7.054-29.945l-6.275 0c2.539-1.525 5.234-2.52 7.388-3.111a27.889 27.889 0 0 0-1.113 3.111zm5.458 17.5c.025 1.29-.26 2.835-1.002 4.766 0 0 2.26-.81 3.844-4.766l7.447 0c.862 2.513 1.12 4.976.773 7.389l-13.423 0a1.197 1.197 0 0 1-1.206-1.187l0-5.015c0-.655.54-1.187 1.206-1.187l2.36 0zm-15.197-4.278l9.65 0c.664 0 1.202.532 1.202 1.188l0 5.014c0 .656-.538 1.187-1.203 1.187l-9.649 0a1.195 1.195 0 0 1-1.203-1.187l0-5.014c0-.656.539-1.188 1.203-1.188z"/>
  </g>
</svg>
