<svg xmlns="http://www.w3.org/2000/svg" width="595" height="595" viewBox="0 0 595 595">
  <path fill="#C12525" fill-rule="evenodd" d="M56.019 342.624l17.262 0c11.828 0 21.417 9.589 21.417 21.417 0 11.829-9.589 21.417-21.417 21.417l-12.117 0c-3.234-14.413-4.95-28.691-5.145-42.834zm298.225 218.438a278.457 278.457 0 0 0 8.18-9.76l36.166 0a367.364 367.364 0 0 1-44.346 9.76zM61.927 292.102l101.532 0c11.829 0 21.417 9.589 21.417 21.417 0 11.828-9.588 21.417-21.417 21.417l-107.396 0c.364-14.42 2.319-28.697 5.864-42.834zm92.098-103.02c10.364 1.498 18.327 10.417 18.327 21.196 0 11.829-9.59 21.417-21.417 21.417l-5.764 0c1.325-15.216 4.38-29.4 8.854-42.612zm-45.65 42.613l-21.108 0c5.32-8.969 11.32-17.878 17.999-26.726 0 10.066 1.166 18.935 3.109 26.726zM522.862 435.98l-19.732 0c-11.828 0-21.417-9.588-21.417-21.417 0-11.828 9.589-21.417 21.417-21.417l32.763 0c-2.65 14.422-6.993 28.7-13.031 42.834zM456.4 529.183a350.909 350.909 0 0 1-28.193 12.235l-58.288 0c24.122-33.65 31.99-64.769 23.604-93.356l94.482 0c8.284 0 15 6.715 15 15l0 9.87c-12.355 19.02-27.89 37.77-46.605 56.25zm-95.92-81.121l2.123 0c-1.398.871-2.304 1.244-2.304 1.244.063-.416.124-.83.181-1.244zM233.083 560.395c-31.794-5.335-61.975-14.656-89.84-27.346-9.399-10.824-18.04-21.58-25.92-32.269l82.178 0c4.156 20.04 15.35 39.912 33.582 59.615zM63.32 394.245l66.477 0c8.284 0 15 6.715 15 15l0 63.356c0 8.284-6.716 15-15 15l-21.83 0c-21.642-31.72-36.525-62.84-44.647-93.356zm461.064-110.93l-28.924 0c-8.284 0-15-6.715-15-15l0-63.318c19.526 26.52 34.167 52.626 43.924 78.319zM235.12 86.72l9.905 0c8.284 0 15 6.715 15 15l0 63.356c0 8.284-6.716 15-15 15l-87.675 0c15.98-39.906 45.1-70.433 77.77-93.356zm101.31 292.45c-17.715-16.79-41.309-26.453-58.491-31.243 6.512 15.746 9.153 27.846 9.295 37.53l-153.584 0c-11.829 0-21.417-9.588-21.417-21.417 0-11.828 9.588-21.417 21.417-21.417l187.621 0c11.828 0 21.417 9.589 21.417 21.417a21.35 21.35 0 0 1-6.259 15.13zm-50.008 16.172c-3.814 20.071-19.972 28-27.27 42.834l-22.768 0c-2.007-9.22-3.286-20.506-3.286-34.299-10.18 11.486-18.167 22.918-23.96 34.299l-30.4 0c-11.827 0-21.416-9.589-21.416-21.417 0-11.828 9.589-21.417 21.417-21.417l107.683 0zm63.453 0l97.896 0c11.828 0 21.417 9.589 21.417 21.417 0 11.828-9.589 21.417-21.417 21.417l-57.839 0c-3.072-7.067-7.18-13.973-12.323-20.718 0 9.13-2.362 15.86-5.34 20.718l-10.942 0c.522-16.954-4.005-31.102-11.452-42.834zM341.11 189.96c10.452 15.924 23.752 28.728 35.027 42.834l-169.845 0c-11.828 0-21.417-9.59-21.417-21.417 0-11.829 9.589-21.417 21.417-21.417l134.818 0zm112.268 1.122c8.464 2.86 14.557 10.866 14.557 20.295 0 10.7-7.847 19.567-18.1 21.161 1.745-12.51 2.977-26.288 3.543-41.456zm-371.097 49.4l28.753 0c11.454 31.872 35.969 42.075 35.969 42.075-2.22-14.801-2.956-28.814-2.399-42.075l18.854 0c11.829 0 21.417 9.588 21.417 21.417 0 11.828-9.588 21.417-21.417 21.417l-99.118 0c4.31-14.427 10.29-28.705 17.941-42.834zm246.38-153.763c-3.878 16.257-5.536 30.38-5.487 42.834l-21.694 0c-11.828 0-21.417-9.589-21.417-21.417 0-11.829 9.59-21.417 21.417-21.417l27.181 0zm-5.231 50.522c1.088 17.122 5.56 30.922 11.832 42.834l-33.782 0c-11.828 0-21.417-9.589-21.417-21.417 0-11.828 9.59-21.417 21.417-21.417l21.95 0zm58.513 103.24c8.525 12.061 15.104 25.526 17.053 42.835l-24.872 0c-11.828 0-21.417-9.589-21.417-21.417 0-11.829 9.589-21.417 21.417-21.417l7.819 0zm66.685.018c11.43.45 20.56 9.859 20.56 21.4 0 11.828-9.59 21.417-21.418 21.417l-9.622 0c4.144-12.12 7.77-26.284 10.48-42.817zm13.988-58.228l-8.988 0c.066-3.396.1-6.858.1-10.388a542.287 542.287 0 0 1 8.888 10.388zm-257.965 265.79c-5.721 14.363-7.93 28.64-6.628 42.835l-20.538 0c-11.828 0-21.417-9.589-21.417-21.417 0-11.829 9.589-21.417 21.417-21.417l27.166 0zm34.386 0l16.97 0c-1.21 7.645-.146 17.146 4.72 29.88 0 0-13.57-4.888-21.69-29.88zm92.185-371.227l-81.07 0c32.803-20.22 67.615-33.419 95.45-41.258-6.166 15.062-10.892 28.754-14.38 41.258zm68.346 215.268c.32 16.287-3.236 35.816-12.463 60.216 0 0 28.113-10.233 47.815-60.216l92.615 0c10.719 31.755 13.921 62.874 9.607 93.356l-166.93 0c-8.284 0-15-6.716-15-15l0-63.356c0-8.284 6.716-15 15-15l29.356 0zM207.39 241.58l120.297 0c8.284 0 15 6.716 15 15l0 63.356c0 8.284-6.716 15-15 15l-120.297 0c-8.284 0-15-6.716-15-15l0-63.356c0-8.284 6.716-15 15-15z"/>
</svg>
